G04 #@! TF.GenerationSoftware,KiCad,Pcbnew,8.0.7-8.0.7-0~ubuntu24.04.1*
G04 #@! TF.CreationDate,2024-12-31T11:01:01-07:00*
G04 #@! TF.ProjectId,DRV8213 brushed Motor Driver,44525638-3231-4332-9062-727573686564,V1*
G04 #@! TF.SameCoordinates,Original*
G04 #@! TF.FileFunction,Copper,L1,Top*
G04 #@! TF.FilePolarity,Positive*
%FSLAX46Y46*%
G04 Gerber Fmt 4.6, Leading zero omitted, Abs format (unit mm)*
G04 Created by KiCad (PCBNEW 8.0.7-8.0.7-0~ubuntu24.04.1) date 2024-12-31 11:01:01*
%MOMM*%
%LPD*%
G01*
G04 APERTURE LIST*
G04 Aperture macros list*
%AMRoundRect*
0 Rectangle with rounded corners*
0 $1 Rounding radius*
0 $2 $3 $4 $5 $6 $7 $8 $9 X,Y pos of 4 corners*
0 Add a 4 corners polygon primitive as box body*
4,1,4,$2,$3,$4,$5,$6,$7,$8,$9,$2,$3,0*
0 Add four circle primitives for the rounded corners*
1,1,$1+$1,$2,$3*
1,1,$1+$1,$4,$5*
1,1,$1+$1,$6,$7*
1,1,$1+$1,$8,$9*
0 Add four rect primitives between the rounded corners*
20,1,$1+$1,$2,$3,$4,$5,0*
20,1,$1+$1,$4,$5,$6,$7,0*
20,1,$1+$1,$6,$7,$8,$9,0*
20,1,$1+$1,$8,$9,$2,$3,0*%
G04 Aperture macros list end*
G04 #@! TA.AperFunction,SMDPad,CuDef*
%ADD10R,2.800000X2.800000*%
G04 #@! TD*
G04 #@! TA.AperFunction,SMDPad,CuDef*
%ADD11R,2.500000X2.800000*%
G04 #@! TD*
G04 #@! TA.AperFunction,SMDPad,CuDef*
%ADD12RoundRect,0.140000X-0.170000X0.140000X-0.170000X-0.140000X0.170000X-0.140000X0.170000X0.140000X0*%
G04 #@! TD*
G04 #@! TA.AperFunction,ComponentPad*
%ADD13R,1.000000X1.000000*%
G04 #@! TD*
G04 #@! TA.AperFunction,ComponentPad*
%ADD14O,1.000000X1.000000*%
G04 #@! TD*
G04 #@! TA.AperFunction,SMDPad,CuDef*
%ADD15RoundRect,0.225000X-0.225000X-0.250000X0.225000X-0.250000X0.225000X0.250000X-0.225000X0.250000X0*%
G04 #@! TD*
G04 #@! TA.AperFunction,ComponentPad*
%ADD16RoundRect,0.250000X0.625000X-0.350000X0.625000X0.350000X-0.625000X0.350000X-0.625000X-0.350000X0*%
G04 #@! TD*
G04 #@! TA.AperFunction,ComponentPad*
%ADD17O,1.750000X1.200000*%
G04 #@! TD*
G04 #@! TA.AperFunction,SMDPad,CuDef*
%ADD18RoundRect,0.062500X0.062500X-0.355000X0.062500X0.355000X-0.062500X0.355000X-0.062500X-0.355000X0*%
G04 #@! TD*
G04 #@! TA.AperFunction,SMDPad,CuDef*
%ADD19RoundRect,0.062500X0.355000X-0.062500X0.355000X0.062500X-0.355000X0.062500X-0.355000X-0.062500X0*%
G04 #@! TD*
G04 #@! TA.AperFunction,HeatsinkPad*
%ADD20C,0.600000*%
G04 #@! TD*
G04 #@! TA.AperFunction,HeatsinkPad*
%ADD21R,1.680000X1.680000*%
G04 #@! TD*
G04 #@! TA.AperFunction,ViaPad*
%ADD22C,0.600000*%
G04 #@! TD*
G04 #@! TA.AperFunction,Conductor*
%ADD23C,0.280000*%
G04 #@! TD*
G04 #@! TA.AperFunction,Conductor*
%ADD24C,0.200000*%
G04 #@! TD*
G04 APERTURE END LIST*
D10*
G04 #@! TO.P,J3,1,Pin_1*
G04 #@! TO.N,VDD*
X176650000Y-107550000D03*
G04 #@! TD*
D11*
G04 #@! TO.P,J4,1,Pin_1*
G04 #@! TO.N,VDD*
X176650000Y-96750000D03*
G04 #@! TD*
D12*
G04 #@! TO.P,C6,1*
G04 #@! TO.N,VDD*
X170300000Y-104420000D03*
G04 #@! TO.P,C6,2*
G04 #@! TO.N,GNDPWR*
X170300000Y-105380000D03*
G04 #@! TD*
D11*
G04 #@! TO.P,J1,1,Pin_1*
G04 #@! TO.N,VDD*
X172950000Y-106650000D03*
G04 #@! TD*
D10*
G04 #@! TO.P,J2,1,Pin_1*
G04 #@! TO.N,VDD*
X172950000Y-95850000D03*
G04 #@! TD*
D13*
G04 #@! TO.P,J11,1,Pin_1*
G04 #@! TO.N,/CSA-A*
X168300000Y-108050000D03*
D14*
G04 #@! TO.P,J11,2,Pin_2*
X168300000Y-106780000D03*
G04 #@! TO.P,J11,3,Pin_3*
G04 #@! TO.N,/Fault*
X168300000Y-105510000D03*
G04 #@! TD*
D15*
G04 #@! TO.P,C7,1*
G04 #@! TO.N,VDD*
X164525000Y-99850000D03*
G04 #@! TO.P,C7,2*
G04 #@! TO.N,GNDPWR*
X166075000Y-99850000D03*
G04 #@! TD*
D16*
G04 #@! TO.P,J9,1,Pin_1*
G04 #@! TO.N,Net-(J9-Pin_1)*
X173000000Y-102700000D03*
D17*
G04 #@! TO.P,J9,2,Pin_2*
G04 #@! TO.N,Net-(J9-Pin_2)*
X173000000Y-100700000D03*
G04 #@! TD*
D18*
G04 #@! TO.P,U1,1,IPROPI*
G04 #@! TO.N,/CSA-A*
X168850000Y-102907500D03*
G04 #@! TO.P,U1,2,VCC*
G04 #@! TO.N,+3.3V*
X169350000Y-102907500D03*
G04 #@! TO.P,U1,3,STALL_N*
G04 #@! TO.N,/Fault*
X169850000Y-102907500D03*
G04 #@! TO.P,U1,4,FAULT_N*
X170350000Y-102907500D03*
D19*
G04 #@! TO.P,U1,5,VM*
G04 #@! TO.N,VDD*
X171057500Y-102200000D03*
G04 #@! TO.P,U1,6,OUT1*
G04 #@! TO.N,Net-(J9-Pin_1)*
X171057500Y-101700000D03*
G04 #@! TO.P,U1,7,PGND*
G04 #@! TO.N,GNDPWR*
X171057500Y-101200000D03*
G04 #@! TO.P,U1,8,OUT2*
G04 #@! TO.N,Net-(J9-Pin_2)*
X171057500Y-100700000D03*
D18*
G04 #@! TO.P,U1,9,GND*
G04 #@! TO.N,GNDPWR*
X170350000Y-99992500D03*
G04 #@! TO.P,U1,10,TINRUSH*
G04 #@! TO.N,Net-(U1-TINRUSH)*
X169850000Y-99992500D03*
G04 #@! TO.P,U1,11,SMODE*
G04 #@! TO.N,+3.3V*
X169350000Y-99992500D03*
G04 #@! TO.P,U1,12,IN2*
G04 #@! TO.N,Net-(J10-Pin_2)*
X168850000Y-99992500D03*
D19*
G04 #@! TO.P,U1,13,IN1*
G04 #@! TO.N,Net-(J10-Pin_1)*
X168142500Y-100700000D03*
G04 #@! TO.P,U1,14,GAINSEL*
G04 #@! TO.N,GNDPWR*
X168142500Y-101200000D03*
G04 #@! TO.P,U1,15,IMODE*
G04 #@! TO.N,+3.3V*
X168142500Y-101700000D03*
G04 #@! TO.P,U1,16,VREF*
X168142500Y-102200000D03*
D20*
G04 #@! TO.P,U1,17,Thermal_Pad*
G04 #@! TO.N,GNDPWR*
X169050000Y-102000000D03*
X170150000Y-102000000D03*
D21*
X169600000Y-101450000D03*
D20*
X169050000Y-100900000D03*
X170150000Y-100900000D03*
G04 #@! TD*
D13*
G04 #@! TO.P,J10,1,Pin_1*
G04 #@! TO.N,Net-(J10-Pin_1)*
X168300000Y-97900000D03*
D14*
G04 #@! TO.P,J10,2,Pin_2*
G04 #@! TO.N,Net-(J10-Pin_2)*
X168300000Y-96630000D03*
G04 #@! TO.P,J10,3,Pin_3*
G04 #@! TO.N,unconnected-(J10-Pin_3-Pad3)*
X168300000Y-95360000D03*
G04 #@! TD*
D12*
G04 #@! TO.P,C8,1*
G04 #@! TO.N,VDD*
X164550000Y-101370000D03*
G04 #@! TO.P,C8,2*
G04 #@! TO.N,GNDPWR*
X164550000Y-102330000D03*
G04 #@! TD*
D22*
G04 #@! TO.N,VDD*
X176450000Y-94700000D03*
X178300000Y-103250000D03*
X177500000Y-101400000D03*
X178300000Y-104100000D03*
X177500000Y-104400000D03*
X177250000Y-94700000D03*
X165500000Y-101700000D03*
X178300000Y-102400000D03*
X174850000Y-94700000D03*
X178300000Y-100700000D03*
X178300000Y-98950000D03*
X177500000Y-102900000D03*
X177500000Y-99900000D03*
X178050000Y-94700000D03*
X178300000Y-99800000D03*
X175650000Y-94700000D03*
X178300000Y-101550000D03*
G04 #@! TO.N,/CSA-A*
X168400000Y-103075001D03*
G04 #@! TO.N,GNDPWR*
X166650000Y-108700000D03*
X170900000Y-107900000D03*
X169300000Y-108700000D03*
X173450000Y-97800000D03*
X169300000Y-107900000D03*
X165850000Y-108700000D03*
X170100000Y-107900000D03*
X166100000Y-95700000D03*
X170900000Y-108700000D03*
X170900000Y-107100000D03*
X165050000Y-107900000D03*
X166900000Y-96500000D03*
X165300000Y-96500000D03*
X172650000Y-99400000D03*
X172650000Y-98600000D03*
X166900000Y-94900000D03*
X166650000Y-107900000D03*
X172650000Y-97800000D03*
X173450000Y-98600000D03*
X165300000Y-95700000D03*
X166900000Y-95700000D03*
X171850000Y-98600000D03*
X165850000Y-107900000D03*
X169300000Y-107100000D03*
X173450000Y-99400000D03*
X170100000Y-108700000D03*
X165300000Y-94900000D03*
X171850000Y-99400000D03*
X171850000Y-97800000D03*
X166100000Y-94900000D03*
X170100000Y-107100000D03*
X165050000Y-108700000D03*
X166100000Y-96500000D03*
G04 #@! TO.N,/Fault*
X169500000Y-104100000D03*
G04 #@! TO.N,+3.3V*
X168281182Y-99389969D03*
X168250000Y-103881988D03*
G04 #@! TO.N,Net-(U1-TINRUSH)*
X169800000Y-99000000D03*
G04 #@! TO.N,Net-(J10-Pin_1)*
X166700000Y-97800000D03*
G04 #@! TD*
D23*
G04 #@! TO.N,VDD*
X164709886Y-101409886D02*
X164525000Y-101225000D01*
X165209886Y-101409886D02*
X164709886Y-101409886D01*
X172595031Y-106675454D02*
X172595031Y-106620031D01*
D24*
X164709886Y-101409886D02*
X164600000Y-101300000D01*
D23*
X165500000Y-101700000D02*
X165209886Y-101409886D01*
X164525000Y-101225000D02*
X164525000Y-99850000D01*
X171080000Y-104420000D02*
X171150000Y-104350000D01*
X170300000Y-104420000D02*
X171080000Y-104420000D01*
D24*
G04 #@! TO.N,/CSA-A*
X168567501Y-102907500D02*
X168850000Y-102907500D01*
X168400000Y-103075001D02*
X168567501Y-102907500D01*
G04 #@! TO.N,GNDPWR*
X171057500Y-101200000D02*
X170450000Y-101200000D01*
X168750000Y-101200000D02*
X169050000Y-100900000D01*
X170350000Y-99992500D02*
X170340000Y-100002500D01*
X170340000Y-100002500D02*
X170340000Y-100710000D01*
X168142500Y-101200000D02*
X168750000Y-101200000D01*
X170450000Y-101200000D02*
X170150000Y-100900000D01*
X170340000Y-100710000D02*
X170150000Y-100900000D01*
G04 #@! TO.N,Net-(J9-Pin_2)*
X173500000Y-100800000D02*
X173400000Y-100700000D01*
G04 #@! TO.N,/Fault*
X170350000Y-102907500D02*
X169850000Y-102907500D01*
X170350000Y-103250000D02*
X170350000Y-102907500D01*
X169500000Y-104100000D02*
X170350000Y-103250000D01*
G04 #@! TO.N,+3.3V*
X166900000Y-102550000D02*
X167250000Y-102200000D01*
X168635614Y-99275000D02*
X169175000Y-99275000D01*
X169350000Y-99450000D02*
X169350000Y-99992500D01*
X168281182Y-99389969D02*
X168520645Y-99389969D01*
X168250000Y-103881988D02*
X168900000Y-103881988D01*
X168900000Y-103881988D02*
X168900000Y-103851471D01*
X167250000Y-102200000D02*
X168142500Y-102200000D01*
X169175000Y-99275000D02*
X169350000Y-99450000D01*
X167313360Y-103881988D02*
X166900000Y-103468628D01*
X168520645Y-99389969D02*
X168635614Y-99275000D01*
X168900000Y-103851471D02*
X169350000Y-103401471D01*
X169350000Y-103401471D02*
X169350000Y-102907500D01*
X168142500Y-102200000D02*
X168142500Y-101700000D01*
X166900000Y-103468628D02*
X166900000Y-102550000D01*
X168250000Y-103881988D02*
X167313360Y-103881988D01*
G04 #@! TO.N,Net-(J10-Pin_2)*
X168000686Y-99992500D02*
X167300000Y-99291814D01*
X167300000Y-97150000D02*
X167820000Y-96630000D01*
X168850000Y-99992500D02*
X168000686Y-99992500D01*
X167300000Y-99291814D02*
X167300000Y-97150000D01*
X167820000Y-96630000D02*
X168300000Y-96630000D01*
G04 #@! TO.N,Net-(U1-TINRUSH)*
X169800000Y-99000000D02*
X169800000Y-99942500D01*
X169800000Y-99942500D02*
X169850000Y-99992500D01*
G04 #@! TO.N,Net-(J10-Pin_1)*
X166700000Y-97800000D02*
X166900000Y-98000000D01*
X166900000Y-99457500D02*
X168142500Y-100700000D01*
X166900000Y-98000000D02*
X166900000Y-99457500D01*
G04 #@! TD*
G04 #@! TA.AperFunction,Conductor*
G04 #@! TO.N,VDD*
G36*
X171437966Y-102085362D02*
G01*
X171442663Y-102088500D01*
X171468817Y-102127636D01*
X171469999Y-102139638D01*
X171469999Y-102167435D01*
X171476641Y-102219263D01*
X171484469Y-102249293D01*
X171503972Y-102297773D01*
X171503973Y-102297775D01*
X171510670Y-102309748D01*
X171676929Y-102607000D01*
X171916675Y-103035635D01*
X171924500Y-103065656D01*
X171924500Y-103104273D01*
X171927353Y-103134693D01*
X171927354Y-103134701D01*
X171931994Y-103147960D01*
X171972207Y-103262882D01*
X172052850Y-103372150D01*
X172162118Y-103452793D01*
X172162121Y-103452794D01*
X172204512Y-103467627D01*
X172213915Y-103471834D01*
X172257417Y-103489854D01*
X172257422Y-103489855D01*
X172257426Y-103489857D01*
X172277799Y-103493909D01*
X172286087Y-103496171D01*
X172290301Y-103497646D01*
X172299048Y-103498465D01*
X172305284Y-103499376D01*
X172336068Y-103505500D01*
X172938501Y-103505500D01*
X172945235Y-103504160D01*
X172957695Y-103501681D01*
X172969692Y-103500500D01*
X173679273Y-103500500D01*
X173695653Y-103498963D01*
X173709699Y-103497646D01*
X173837882Y-103452793D01*
X173947150Y-103372150D01*
X174019586Y-103274001D01*
X174000502Y-108999500D01*
X171721832Y-108999500D01*
X171678345Y-108981487D01*
X171661050Y-108947371D01*
X171392842Y-107207822D01*
X171392750Y-107189701D01*
X171405647Y-107100000D01*
X171385165Y-106957543D01*
X171342038Y-106863110D01*
X171337200Y-106846937D01*
X170676217Y-102559897D01*
X170675499Y-102550526D01*
X170675499Y-102526598D01*
X170675498Y-102526594D01*
X170659234Y-102444821D01*
X170657541Y-102438771D01*
X170646303Y-102365883D01*
X170657479Y-102320159D01*
X170675488Y-102303749D01*
X171034955Y-102088500D01*
X171042911Y-102083736D01*
X171074506Y-102075000D01*
X171403802Y-102075000D01*
X171437966Y-102085362D01*
G37*
G04 #@! TD.AperFunction*
G04 #@! TD*
G04 #@! TA.AperFunction,Conductor*
G04 #@! TO.N,VDD*
G36*
X178581487Y-94418513D02*
G01*
X178599500Y-94462000D01*
X178599500Y-108938000D01*
X178581487Y-108981487D01*
X178538000Y-108999500D01*
X174000502Y-108999500D01*
X174019585Y-103274002D01*
X174027793Y-103262882D01*
X174072646Y-103134699D01*
X174073963Y-103120653D01*
X174075500Y-103104273D01*
X174075500Y-102295726D01*
X174072646Y-102265306D01*
X174072646Y-102265301D01*
X174027793Y-102137118D01*
X174023396Y-102131160D01*
X174027207Y-100987839D01*
X174031887Y-100964517D01*
X174044737Y-100933497D01*
X174075499Y-100778845D01*
X174075500Y-100778845D01*
X174075500Y-100621155D01*
X174075499Y-100621154D01*
X174044738Y-100466508D01*
X174044737Y-100466507D01*
X174044737Y-100466503D01*
X174033792Y-100440081D01*
X174029112Y-100416346D01*
X174048158Y-94702342D01*
X174048709Y-94694343D01*
X174064489Y-94577249D01*
X174068678Y-94561793D01*
X174112604Y-94456493D01*
X174120645Y-94442636D01*
X174134644Y-94424466D01*
X174175454Y-94401011D01*
X174183362Y-94400500D01*
X178538000Y-94400500D01*
X178581487Y-94418513D01*
G37*
G04 #@! TD.AperFunction*
G04 #@! TD*
G04 #@! TA.AperFunction,Conductor*
G04 #@! TO.N,Net-(J9-Pin_1)*
G36*
X171484728Y-101578349D02*
G01*
X172958520Y-102085720D01*
X172993774Y-102116907D01*
X173000000Y-102143870D01*
X173000000Y-103238500D01*
X172981987Y-103281987D01*
X172938500Y-103300000D01*
X172336068Y-103300000D01*
X172292581Y-103281987D01*
X172282393Y-103268521D01*
X171683324Y-102197458D01*
X171675499Y-102167437D01*
X171675499Y-102111598D01*
X171675498Y-102111594D01*
X171660241Y-102034885D01*
X171660239Y-102034882D01*
X171602112Y-101947888D01*
X171555765Y-101916920D01*
X171521188Y-101893816D01*
X171501681Y-101872702D01*
X171475000Y-101825000D01*
X170702000Y-101825000D01*
X170658513Y-101806987D01*
X170640500Y-101763500D01*
X170640500Y-101636500D01*
X170658513Y-101593013D01*
X170702000Y-101575000D01*
X171464709Y-101575000D01*
X171484728Y-101578349D01*
G37*
G04 #@! TD.AperFunction*
G04 #@! TD*
G04 #@! TA.AperFunction,Conductor*
G04 #@! TO.N,Net-(J9-Pin_2)*
G36*
X172981987Y-100118013D02*
G01*
X173000000Y-100161500D01*
X173000000Y-101238500D01*
X172981987Y-101281987D01*
X172938500Y-101300000D01*
X172509866Y-101300000D01*
X172490631Y-101296914D01*
X171670594Y-101026884D01*
X171638695Y-101002638D01*
X171602112Y-100947888D01*
X171560344Y-100919979D01*
X171515116Y-100889759D01*
X171438404Y-100874500D01*
X171217690Y-100874500D01*
X171198454Y-100871414D01*
X171099764Y-100838916D01*
X171064093Y-100808206D01*
X171057500Y-100780502D01*
X171057500Y-100636500D01*
X171075513Y-100593013D01*
X171119000Y-100575000D01*
X171475000Y-100575000D01*
X172487700Y-100105700D01*
X172513558Y-100100000D01*
X172938500Y-100100000D01*
X172981987Y-100118013D01*
G37*
G04 #@! TD.AperFunction*
G04 #@! TD*
G04 #@! TA.AperFunction,Conductor*
G04 #@! TO.N,GNDPWR*
G36*
X168113123Y-94420462D02*
G01*
X168167661Y-94475000D01*
X168187623Y-94549500D01*
X168167661Y-94624000D01*
X168113123Y-94678538D01*
X168074281Y-94694170D01*
X168049775Y-94700209D01*
X167899145Y-94779267D01*
X167771820Y-94892067D01*
X167771817Y-94892071D01*
X167675181Y-95032070D01*
X167614860Y-95191125D01*
X167594355Y-95360000D01*
X167614860Y-95528874D01*
X167675181Y-95687929D01*
X167675182Y-95687930D01*
X167771817Y-95827929D01*
X167820616Y-95871161D01*
X167834512Y-95883472D01*
X167877038Y-95947817D01*
X167881695Y-96024804D01*
X167847234Y-96093806D01*
X167834512Y-96106528D01*
X167771817Y-96162071D01*
X167675184Y-96302065D01*
X167675183Y-96302068D01*
X167657334Y-96349131D01*
X167623376Y-96401652D01*
X167115489Y-96909540D01*
X167059540Y-96965488D01*
X167019979Y-97034011D01*
X166999500Y-97110437D01*
X166999500Y-97167270D01*
X166979538Y-97241770D01*
X166925000Y-97296308D01*
X166850500Y-97316270D01*
X166808524Y-97310235D01*
X166771965Y-97299501D01*
X166771963Y-97299500D01*
X166771961Y-97299500D01*
X166628039Y-97299500D01*
X166628037Y-97299500D01*
X166628032Y-97299501D01*
X166489949Y-97340046D01*
X166368872Y-97417856D01*
X166368870Y-97417859D01*
X166274622Y-97526628D01*
X166214834Y-97657545D01*
X166194353Y-97799996D01*
X166194353Y-97800003D01*
X166214834Y-97942454D01*
X166214834Y-97942455D01*
X166214835Y-97942457D01*
X166274623Y-98073373D01*
X166368872Y-98182143D01*
X166489947Y-98259953D01*
X166492475Y-98260695D01*
X166495175Y-98262341D01*
X166499642Y-98264381D01*
X166499398Y-98264914D01*
X166558333Y-98300834D01*
X166595299Y-98368527D01*
X166599500Y-98403660D01*
X166599500Y-99497062D01*
X166619979Y-99573490D01*
X166650658Y-99626628D01*
X166659535Y-99642004D01*
X166659538Y-99642008D01*
X166659540Y-99642011D01*
X167095740Y-100078211D01*
X167485543Y-100468014D01*
X167524107Y-100534809D01*
X167526322Y-100602436D01*
X167524501Y-100611591D01*
X167524500Y-100611603D01*
X167524500Y-100788400D01*
X167539759Y-100865115D01*
X167597888Y-100952112D01*
X167684881Y-101010239D01*
X167684882Y-101010239D01*
X167684883Y-101010240D01*
X167761599Y-101025500D01*
X168523400Y-101025499D01*
X168600117Y-101010240D01*
X168687112Y-100952112D01*
X168745240Y-100865117D01*
X168760500Y-100788401D01*
X168760499Y-100759499D01*
X168780459Y-100685003D01*
X168834995Y-100630463D01*
X168909494Y-100610499D01*
X168938400Y-100610499D01*
X169015117Y-100595240D01*
X169017217Y-100593836D01*
X169024358Y-100591412D01*
X169028678Y-100589623D01*
X169028795Y-100589905D01*
X169090250Y-100569042D01*
X169165896Y-100584087D01*
X169182778Y-100593833D01*
X169184883Y-100595240D01*
X169261599Y-100610500D01*
X169438400Y-100610499D01*
X169515117Y-100595240D01*
X169517217Y-100593836D01*
X169524358Y-100591412D01*
X169528678Y-100589623D01*
X169528795Y-100589905D01*
X169590250Y-100569042D01*
X169665896Y-100584087D01*
X169682778Y-100593833D01*
X169684883Y-100595240D01*
X169761599Y-100610500D01*
X169938400Y-100610499D01*
X170015117Y-100595240D01*
X170102112Y-100537112D01*
X170160240Y-100450117D01*
X170175500Y-100373401D01*
X170175499Y-99611600D01*
X170160240Y-99534883D01*
X170153068Y-99524149D01*
X170128278Y-99451117D01*
X170143326Y-99375471D01*
X170164348Y-99343803D01*
X170225377Y-99273373D01*
X170285165Y-99142457D01*
X170305647Y-99000000D01*
X170305647Y-98999996D01*
X170291269Y-98900000D01*
X170285165Y-98857543D01*
X170225377Y-98726627D01*
X170131128Y-98617857D01*
X170131127Y-98617856D01*
X170097465Y-98596223D01*
X170010053Y-98540047D01*
X170010050Y-98540046D01*
X169871967Y-98499501D01*
X169871962Y-98499500D01*
X169871961Y-98499500D01*
X169728039Y-98499500D01*
X169728037Y-98499500D01*
X169728032Y-98499501D01*
X169589949Y-98540046D01*
X169589947Y-98540046D01*
X169589947Y-98540047D01*
X169582939Y-98544551D01*
X169468872Y-98617856D01*
X169468870Y-98617859D01*
X169374622Y-98726628D01*
X169314833Y-98857546D01*
X169311917Y-98867479D01*
X169271774Y-98933337D01*
X169204080Y-98970300D01*
X169168953Y-98974500D01*
X168949000Y-98974500D01*
X168874500Y-98954538D01*
X168819962Y-98900000D01*
X168800000Y-98825500D01*
X168800000Y-98720782D01*
X168819962Y-98646282D01*
X168866218Y-98596894D01*
X168878231Y-98588867D01*
X168944552Y-98544552D01*
X168988867Y-98478231D01*
X169000500Y-98419748D01*
X169000500Y-97380252D01*
X168988867Y-97321769D01*
X168944552Y-97255448D01*
X168944411Y-97255354D01*
X168916274Y-97236552D01*
X168865422Y-97178563D01*
X168850377Y-97102916D01*
X168875172Y-97029882D01*
X168876317Y-97028195D01*
X168924818Y-96957930D01*
X168985140Y-96798872D01*
X169005645Y-96630000D01*
X168985140Y-96461128D01*
X168924818Y-96302070D01*
X168828183Y-96162071D01*
X168828180Y-96162068D01*
X168828179Y-96162067D01*
X168765488Y-96106528D01*
X168722961Y-96042184D01*
X168718304Y-95965197D01*
X168752765Y-95896195D01*
X168765488Y-95883472D01*
X168787036Y-95864381D01*
X168828183Y-95827929D01*
X168924818Y-95687930D01*
X168985140Y-95528872D01*
X169005645Y-95360000D01*
X168985140Y-95191128D01*
X168924818Y-95032070D01*
X168828183Y-94892071D01*
X168828180Y-94892068D01*
X168828179Y-94892067D01*
X168700853Y-94779267D01*
X168700854Y-94779267D01*
X168550224Y-94700209D01*
X168525719Y-94694170D01*
X168458161Y-94656959D01*
X168418260Y-94590955D01*
X168416707Y-94513842D01*
X168453918Y-94446284D01*
X168519922Y-94406383D01*
X168561377Y-94400500D01*
X171200500Y-94400500D01*
X171275000Y-94420462D01*
X171329538Y-94475000D01*
X171349500Y-94549500D01*
X171349500Y-97269748D01*
X171361132Y-97328230D01*
X171361133Y-97328231D01*
X171405448Y-97394552D01*
X171471769Y-97438867D01*
X171530252Y-97450500D01*
X173684000Y-97450500D01*
X173758500Y-97470462D01*
X173813038Y-97525000D01*
X173833000Y-97599500D01*
X173829511Y-98646282D01*
X173825534Y-99839087D01*
X173805324Y-99913520D01*
X173750604Y-99967875D01*
X173676038Y-99987589D01*
X173619516Y-99976248D01*
X173508498Y-99930263D01*
X173508494Y-99930262D01*
X173353842Y-99899500D01*
X172978312Y-99899500D01*
X172949243Y-99896637D01*
X172938503Y-99894500D01*
X172938500Y-99894500D01*
X172513558Y-99894500D01*
X172469321Y-99899318D01*
X172469319Y-99899318D01*
X172469306Y-99899320D01*
X172443460Y-99905018D01*
X172401297Y-99919246D01*
X172401296Y-99919247D01*
X171459502Y-100355689D01*
X171396853Y-100369500D01*
X171118998Y-100369500D01*
X171108247Y-100371638D01*
X171079186Y-100374500D01*
X170676599Y-100374500D01*
X170599884Y-100389759D01*
X170512887Y-100447888D01*
X170454760Y-100534881D01*
X170454759Y-100534884D01*
X170439500Y-100611595D01*
X170439500Y-100788400D01*
X170454759Y-100865115D01*
X170512888Y-100952112D01*
X170599881Y-101010239D01*
X170599882Y-101010239D01*
X170599883Y-101010240D01*
X170676599Y-101025500D01*
X170985449Y-101025499D01*
X171032051Y-101032974D01*
X171035489Y-101034106D01*
X171134179Y-101066604D01*
X171134186Y-101066605D01*
X171134190Y-101066607D01*
X171145618Y-101069386D01*
X171165902Y-101074319D01*
X171165904Y-101074319D01*
X171165911Y-101074321D01*
X171166479Y-101074436D01*
X171166572Y-101074482D01*
X171168779Y-101075019D01*
X171168657Y-101075517D01*
X171235568Y-101108720D01*
X171278259Y-101172956D01*
X171283112Y-101249931D01*
X171248828Y-101319020D01*
X171184592Y-101361711D01*
X171137048Y-101369500D01*
X170701996Y-101369500D01*
X170684145Y-101373050D01*
X170683122Y-101373203D01*
X170599886Y-101389758D01*
X170599878Y-101389761D01*
X170581002Y-101402374D01*
X170577501Y-101404644D01*
X170520851Y-101440240D01*
X170519287Y-101441488D01*
X170512888Y-101447887D01*
X170454760Y-101534881D01*
X170454759Y-101534884D01*
X170438957Y-101614328D01*
X170437628Y-101623289D01*
X170435000Y-101636502D01*
X170435000Y-101763502D01*
X170437632Y-101776737D01*
X170438960Y-101785681D01*
X170454760Y-101865117D01*
X170456165Y-101867220D01*
X170458590Y-101874366D01*
X170460377Y-101878679D01*
X170460094Y-101878795D01*
X170480957Y-101940255D01*
X170465910Y-102015901D01*
X170456169Y-102032774D01*
X170454760Y-102034882D01*
X170439500Y-102111595D01*
X170439500Y-102140500D01*
X170419538Y-102215000D01*
X170365000Y-102269538D01*
X170290504Y-102289500D01*
X170261604Y-102289500D01*
X170184879Y-102304760D01*
X170182775Y-102306167D01*
X170175625Y-102308593D01*
X170171325Y-102310375D01*
X170171208Y-102310093D01*
X170109740Y-102330957D01*
X170034094Y-102315908D01*
X170017221Y-102306166D01*
X170015116Y-102304759D01*
X169939773Y-102289773D01*
X169938401Y-102289500D01*
X169938400Y-102289500D01*
X169761603Y-102289500D01*
X169684879Y-102304760D01*
X169682775Y-102306167D01*
X169675625Y-102308593D01*
X169671325Y-102310375D01*
X169671208Y-102310093D01*
X169609740Y-102330957D01*
X169534094Y-102315908D01*
X169517221Y-102306166D01*
X169515116Y-102304759D01*
X169439773Y-102289773D01*
X169438401Y-102289500D01*
X169438400Y-102289500D01*
X169261603Y-102289500D01*
X169184879Y-102304760D01*
X169182775Y-102306167D01*
X169175625Y-102308593D01*
X169171325Y-102310375D01*
X169171208Y-102310093D01*
X169109740Y-102330957D01*
X169034094Y-102315908D01*
X169017221Y-102306166D01*
X169015116Y-102304759D01*
X168938404Y-102289500D01*
X168909499Y-102289500D01*
X168834999Y-102269538D01*
X168780461Y-102215000D01*
X168760499Y-102140500D01*
X168760499Y-102111599D01*
X168754639Y-102082140D01*
X168745240Y-102034883D01*
X168743836Y-102032782D01*
X168741412Y-102025641D01*
X168739623Y-102021322D01*
X168739905Y-102021204D01*
X168719042Y-101959750D01*
X168734087Y-101884104D01*
X168743837Y-101867216D01*
X168745240Y-101865117D01*
X168760500Y-101788401D01*
X168760499Y-101611600D01*
X168745240Y-101534883D01*
X168687112Y-101447888D01*
X168687111Y-101447887D01*
X168600118Y-101389760D01*
X168600115Y-101389759D01*
X168542448Y-101378288D01*
X168523401Y-101374500D01*
X168523400Y-101374500D01*
X167761599Y-101374500D01*
X167684884Y-101389759D01*
X167597887Y-101447888D01*
X167539760Y-101534881D01*
X167539759Y-101534884D01*
X167524500Y-101611595D01*
X167524500Y-101611599D01*
X167524500Y-101699996D01*
X167524501Y-101750499D01*
X167504539Y-101824999D01*
X167450002Y-101879537D01*
X167375502Y-101899500D01*
X167210435Y-101899500D01*
X167149001Y-101915961D01*
X167134012Y-101919978D01*
X167134011Y-101919978D01*
X167134009Y-101919979D01*
X167065492Y-101959537D01*
X166715489Y-102309540D01*
X166659540Y-102365488D01*
X166619979Y-102434011D01*
X166599500Y-102510437D01*
X166599500Y-103508190D01*
X166619979Y-103584618D01*
X166653069Y-103641932D01*
X166659535Y-103653132D01*
X166659538Y-103653136D01*
X166659540Y-103653139D01*
X167072900Y-104066499D01*
X167128849Y-104122448D01*
X167197371Y-104162009D01*
X167273798Y-104182488D01*
X167780082Y-104182488D01*
X167854582Y-104202450D01*
X167892688Y-104233913D01*
X167918872Y-104264131D01*
X168039947Y-104341941D01*
X168178039Y-104382488D01*
X168178041Y-104382488D01*
X168321959Y-104382488D01*
X168321961Y-104382488D01*
X168460053Y-104341941D01*
X168581128Y-104264131D01*
X168607311Y-104233913D01*
X168671185Y-104190683D01*
X168719918Y-104182488D01*
X168891692Y-104182488D01*
X168966192Y-104202450D01*
X169020730Y-104256988D01*
X169027227Y-104269591D01*
X169074621Y-104373370D01*
X169074622Y-104373371D01*
X169074623Y-104373373D01*
X169168872Y-104482143D01*
X169289947Y-104559953D01*
X169416135Y-104597004D01*
X169425995Y-104599900D01*
X169428039Y-104600500D01*
X169428041Y-104600500D01*
X169571959Y-104600500D01*
X169571961Y-104600500D01*
X169571963Y-104600499D01*
X169571965Y-104600499D01*
X169592536Y-104594458D01*
X169626061Y-104584614D01*
X169703166Y-104582779D01*
X169770860Y-104619742D01*
X169803079Y-104664609D01*
X169846775Y-104758315D01*
X169846776Y-104758316D01*
X169931684Y-104843224D01*
X170040513Y-104893972D01*
X170090099Y-104900500D01*
X170509900Y-104900499D01*
X170559487Y-104893972D01*
X170630170Y-104861011D01*
X170706124Y-104847619D01*
X170778601Y-104873998D01*
X170828179Y-104933081D01*
X170840399Y-104973347D01*
X171134101Y-106878258D01*
X171140322Y-106905840D01*
X171140322Y-106905843D01*
X171145154Y-106921996D01*
X171155105Y-106948469D01*
X171155110Y-106948483D01*
X171177063Y-106996552D01*
X171189011Y-107037244D01*
X171194985Y-107078795D01*
X171194985Y-107121198D01*
X171189342Y-107160455D01*
X171188131Y-107178024D01*
X171187253Y-107190750D01*
X171187253Y-107190752D01*
X171187345Y-107208870D01*
X171187345Y-107208874D01*
X171189741Y-107239132D01*
X171212276Y-107385290D01*
X171434685Y-108827797D01*
X171426309Y-108904467D01*
X171380719Y-108966678D01*
X171310131Y-108997760D01*
X171287426Y-108999500D01*
X168979353Y-108999500D01*
X168904853Y-108979538D01*
X168850315Y-108925000D01*
X168830353Y-108850500D01*
X168850315Y-108776000D01*
X168896569Y-108726613D01*
X168944552Y-108694552D01*
X168988867Y-108628231D01*
X169000500Y-108569748D01*
X169000500Y-107530252D01*
X168988867Y-107471769D01*
X168944552Y-107405448D01*
X168944411Y-107405354D01*
X168916274Y-107386552D01*
X168865422Y-107328563D01*
X168850377Y-107252916D01*
X168875172Y-107179882D01*
X168876317Y-107178195D01*
X168924818Y-107107930D01*
X168985140Y-106948872D01*
X169005645Y-106780000D01*
X168985140Y-106611128D01*
X168924818Y-106452070D01*
X168828183Y-106312071D01*
X168828180Y-106312068D01*
X168828179Y-106312067D01*
X168765488Y-106256528D01*
X168722961Y-106192184D01*
X168718304Y-106115197D01*
X168752765Y-106046195D01*
X168765488Y-106033472D01*
X168787036Y-106014381D01*
X168828183Y-105977929D01*
X168924818Y-105837930D01*
X168985140Y-105678872D01*
X169005645Y-105510000D01*
X168985140Y-105341128D01*
X168924818Y-105182070D01*
X168828183Y-105042071D01*
X168828180Y-105042068D01*
X168828179Y-105042067D01*
X168700853Y-104929267D01*
X168700854Y-104929267D01*
X168550224Y-104850209D01*
X168385056Y-104809500D01*
X168214944Y-104809500D01*
X168049775Y-104850209D01*
X167899145Y-104929267D01*
X167771820Y-105042067D01*
X167771817Y-105042071D01*
X167675181Y-105182070D01*
X167614860Y-105341125D01*
X167594355Y-105510000D01*
X167614860Y-105678874D01*
X167675181Y-105837929D01*
X167675182Y-105837930D01*
X167771817Y-105977929D01*
X167820616Y-106021161D01*
X167834512Y-106033472D01*
X167877038Y-106097817D01*
X167881695Y-106174804D01*
X167847234Y-106243806D01*
X167834512Y-106256528D01*
X167771817Y-106312071D01*
X167675181Y-106452070D01*
X167614860Y-106611125D01*
X167594355Y-106780000D01*
X167614860Y-106948874D01*
X167675181Y-107107929D01*
X167723565Y-107178024D01*
X167749458Y-107250676D01*
X167735555Y-107326541D01*
X167685583Y-107385290D01*
X167683726Y-107386551D01*
X167655452Y-107405444D01*
X167655448Y-107405448D01*
X167611132Y-107471769D01*
X167599500Y-107530251D01*
X167599500Y-108569748D01*
X167611132Y-108628230D01*
X167611133Y-108628231D01*
X167655448Y-108694552D01*
X167703429Y-108726612D01*
X167754282Y-108784601D01*
X167769328Y-108860247D01*
X167744535Y-108933282D01*
X167686546Y-108984135D01*
X167620647Y-108999500D01*
X164149500Y-108999500D01*
X164075000Y-108979538D01*
X164020462Y-108925000D01*
X164000500Y-108850500D01*
X164000500Y-101942619D01*
X164020462Y-101868119D01*
X164075000Y-101813581D01*
X164149500Y-101793619D01*
X164212465Y-101807577D01*
X164290513Y-101843972D01*
X164340099Y-101850500D01*
X164759900Y-101850499D01*
X164809487Y-101843972D01*
X164843235Y-101828234D01*
X164919190Y-101814840D01*
X164991667Y-101841217D01*
X165041245Y-101900300D01*
X165041742Y-101901375D01*
X165074622Y-101973371D01*
X165074623Y-101973373D01*
X165168872Y-102082143D01*
X165289947Y-102159953D01*
X165428039Y-102200500D01*
X165428041Y-102200500D01*
X165571959Y-102200500D01*
X165571961Y-102200500D01*
X165710053Y-102159953D01*
X165831128Y-102082143D01*
X165925377Y-101973373D01*
X165985165Y-101842457D01*
X165998315Y-101750996D01*
X166005647Y-101700003D01*
X166005647Y-101699996D01*
X165991196Y-101599487D01*
X165985165Y-101557543D01*
X165925377Y-101426627D01*
X165831128Y-101317857D01*
X165831127Y-101317856D01*
X165782128Y-101286367D01*
X165710053Y-101240047D01*
X165710050Y-101240046D01*
X165571967Y-101199501D01*
X165571962Y-101199500D01*
X165571961Y-101199500D01*
X165571959Y-101199500D01*
X165542758Y-101199500D01*
X165468258Y-101179538D01*
X165437399Y-101155859D01*
X165418957Y-101137417D01*
X165341316Y-101092592D01*
X165341315Y-101092591D01*
X165341314Y-101092591D01*
X165254714Y-101069386D01*
X165254712Y-101069386D01*
X165102643Y-101069386D01*
X165028143Y-101049424D01*
X164997288Y-101025748D01*
X164918316Y-100946776D01*
X164918314Y-100946775D01*
X164909141Y-100937602D01*
X164870577Y-100870807D01*
X164865500Y-100832243D01*
X164865500Y-100610006D01*
X164885462Y-100535506D01*
X164940000Y-100480968D01*
X164946814Y-100477267D01*
X165003220Y-100448528D01*
X165098528Y-100353220D01*
X165159719Y-100233126D01*
X165175500Y-100133488D01*
X165175500Y-99566512D01*
X165159719Y-99466874D01*
X165098528Y-99346780D01*
X165003220Y-99251472D01*
X164995448Y-99247512D01*
X164883127Y-99190281D01*
X164866519Y-99187650D01*
X164783488Y-99174500D01*
X164266512Y-99174500D01*
X164203701Y-99184448D01*
X164172807Y-99189341D01*
X164096102Y-99181278D01*
X164033704Y-99135943D01*
X164002334Y-99065482D01*
X164000500Y-99042175D01*
X164000500Y-94549500D01*
X164020462Y-94475000D01*
X164075000Y-94420462D01*
X164149500Y-94400500D01*
X168038623Y-94400500D01*
X168113123Y-94420462D01*
G37*
G04 #@! TD.AperFunction*
G04 #@! TD*
M02*
