G04 #@! TF.GenerationSoftware,KiCad,Pcbnew,8.0.7-8.0.7-0~ubuntu24.04.1*
G04 #@! TF.CreationDate,2024-12-31T11:01:01-07:00*
G04 #@! TF.ProjectId,DRV8213 brushed Motor Driver,44525638-3231-4332-9062-727573686564,V1*
G04 #@! TF.SameCoordinates,Original*
G04 #@! TF.FileFunction,Legend,Top*
G04 #@! TF.FilePolarity,Positive*
%FSLAX46Y46*%
G04 Gerber Fmt 4.6, Leading zero omitted, Abs format (unit mm)*
G04 Created by KiCad (PCBNEW 8.0.7-8.0.7-0~ubuntu24.04.1) date 2024-12-31 11:01:01*
%MOMM*%
%LPD*%
G01*
G04 APERTURE LIST*
G04 Aperture macros list*
%AMRoundRect*
0 Rectangle with rounded corners*
0 $1 Rounding radius*
0 $2 $3 $4 $5 $6 $7 $8 $9 X,Y pos of 4 corners*
0 Add a 4 corners polygon primitive as box body*
4,1,4,$2,$3,$4,$5,$6,$7,$8,$9,$2,$3,0*
0 Add four circle primitives for the rounded corners*
1,1,$1+$1,$2,$3*
1,1,$1+$1,$4,$5*
1,1,$1+$1,$6,$7*
1,1,$1+$1,$8,$9*
0 Add four rect primitives between the rounded corners*
20,1,$1+$1,$2,$3,$4,$5,0*
20,1,$1+$1,$4,$5,$6,$7,0*
20,1,$1+$1,$6,$7,$8,$9,0*
20,1,$1+$1,$8,$9,$2,$3,0*%
G04 Aperture macros list end*
%ADD10C,0.150000*%
%ADD11C,0.127000*%
%ADD12C,0.120000*%
%ADD13RoundRect,0.102000X-1.400000X-1.400000X1.400000X-1.400000X1.400000X1.400000X-1.400000X1.400000X0*%
%ADD14RoundRect,0.100000X-1.250000X-1.400000X1.250000X-1.400000X1.250000X1.400000X-1.250000X1.400000X0*%
%ADD15RoundRect,0.140000X-0.170000X0.140000X-0.170000X-0.140000X0.170000X-0.140000X0.170000X0.140000X0*%
%ADD16RoundRect,0.100000X1.250000X1.400000X-1.250000X1.400000X-1.250000X-1.400000X1.250000X-1.400000X0*%
%ADD17RoundRect,0.102000X1.400000X1.400000X-1.400000X1.400000X-1.400000X-1.400000X1.400000X-1.400000X0*%
%ADD18R,1.000000X1.000000*%
%ADD19O,1.000000X1.000000*%
%ADD20RoundRect,0.225000X-0.225000X-0.250000X0.225000X-0.250000X0.225000X0.250000X-0.225000X0.250000X0*%
%ADD21RoundRect,0.250000X0.625000X-0.350000X0.625000X0.350000X-0.625000X0.350000X-0.625000X-0.350000X0*%
%ADD22O,1.750000X1.200000*%
%ADD23RoundRect,0.062500X0.062500X-0.355000X0.062500X0.355000X-0.062500X0.355000X-0.062500X-0.355000X0*%
%ADD24RoundRect,0.062500X0.355000X-0.062500X0.355000X0.062500X-0.355000X0.062500X-0.355000X-0.062500X0*%
%ADD25R,1.680000X1.680000*%
G04 APERTURE END LIST*
D10*
X174536779Y-95088866D02*
X175298684Y-95088866D01*
X174917731Y-95469819D02*
X174917731Y-94707914D01*
X171336779Y-108688866D02*
X172098684Y-108688866D01*
X171717731Y-109069819D02*
X171717731Y-108307914D01*
D11*
G04 #@! TO.C,J3*
X175100000Y-106000000D02*
X178200000Y-106000000D01*
X175100000Y-106350000D02*
X175100000Y-106000000D01*
X175100000Y-109100000D02*
X175100000Y-108750000D01*
X178200000Y-106000000D02*
X178200000Y-106350000D01*
X178200000Y-108750000D02*
X178200000Y-109100000D01*
X178200000Y-109100000D02*
X175100000Y-109100000D01*
D12*
G04 #@! TO.C,J4*
X175200000Y-95150000D02*
X175200000Y-96150000D01*
X176200000Y-95150000D02*
X175200000Y-95150000D01*
X177100000Y-98350000D02*
X178100000Y-98350000D01*
X178100000Y-98350000D02*
X178100000Y-97350000D01*
G04 #@! TO.C,C6*
X169940000Y-104792164D02*
X169940000Y-105007836D01*
X170660000Y-104792164D02*
X170660000Y-105007836D01*
G04 #@! TO.C,J1*
X171500000Y-105050000D02*
X171500000Y-106050000D01*
X172500000Y-105050000D02*
X171500000Y-105050000D01*
X173400000Y-108250000D02*
X174400000Y-108250000D01*
X174400000Y-108250000D02*
X174400000Y-107250000D01*
D11*
G04 #@! TO.C,J2*
X171400000Y-94300000D02*
X174500000Y-94300000D01*
X171400000Y-94650000D02*
X171400000Y-94300000D01*
X171400000Y-97400000D02*
X171400000Y-97050000D01*
X174500000Y-94300000D02*
X174500000Y-94650000D01*
X174500000Y-97050000D02*
X174500000Y-97400000D01*
X174500000Y-97400000D02*
X171400000Y-97400000D01*
D12*
G04 #@! TO.C,J11*
X162740000Y-105250000D02*
X166740000Y-105250000D01*
X162740000Y-105770000D02*
X162740000Y-105250000D01*
X162740000Y-106520000D02*
X166740000Y-106520000D01*
X162740000Y-107040000D02*
X162740000Y-106520000D01*
X162740000Y-107790000D02*
X166740000Y-107790000D01*
X162740000Y-108310000D02*
X162740000Y-107790000D01*
X166740000Y-104815000D02*
X167860000Y-104815000D01*
X166740000Y-105770000D02*
X162740000Y-105770000D01*
X166740000Y-107040000D02*
X162740000Y-107040000D01*
X166740000Y-107890000D02*
X162740000Y-107890000D01*
X166740000Y-108010000D02*
X162740000Y-108010000D01*
X166740000Y-108130000D02*
X162740000Y-108130000D01*
X166740000Y-108250000D02*
X162740000Y-108250000D01*
X166740000Y-108310000D02*
X162740000Y-108310000D01*
X166740000Y-108745000D02*
X166740000Y-104815000D01*
X167540000Y-107415000D02*
X166740000Y-107415000D01*
X167540000Y-108745000D02*
X166740000Y-108745000D01*
X167860000Y-104815000D02*
X167860000Y-104890323D01*
X167860000Y-106145000D02*
X166740000Y-106145000D01*
X167860000Y-106160323D02*
X167860000Y-106129677D01*
X169060000Y-108050000D02*
X169060000Y-108810000D01*
X169060000Y-108810000D02*
X168300000Y-108810000D01*
G04 #@! TO.C,C7*
X165159420Y-99340000D02*
X165440580Y-99340000D01*
X165159420Y-100360000D02*
X165440580Y-100360000D01*
G04 #@! TO.C,J9*
X171540000Y-98640000D02*
X171540000Y-99560000D01*
X171540000Y-99560000D02*
X173140000Y-99560000D01*
X171540000Y-103840000D02*
X171540000Y-104760000D01*
X171540000Y-104760000D02*
X179360000Y-104760000D01*
X173140000Y-98640000D02*
X173140000Y-99560000D01*
X173140000Y-99560000D02*
X173140000Y-99840000D01*
X173140000Y-103560000D02*
X171925000Y-103560000D01*
X173140000Y-103560000D02*
X173140000Y-103840000D01*
X173140000Y-103840000D02*
X171540000Y-103840000D01*
X173140000Y-104760000D02*
X173140000Y-103840000D01*
X175000000Y-101200000D02*
X179360000Y-101200000D01*
X175000000Y-102200000D02*
X175000000Y-101200000D01*
X175500000Y-99400000D02*
X177100000Y-99400000D01*
X175500000Y-100400000D02*
X175500000Y-99400000D01*
X175500000Y-103000000D02*
X175500000Y-104000000D01*
X175500000Y-104000000D02*
X177100000Y-104000000D01*
X177100000Y-99400000D02*
X177100000Y-100400000D01*
X177100000Y-100400000D02*
X175500000Y-100400000D01*
X177100000Y-103000000D02*
X175500000Y-103000000D01*
X177100000Y-103000000D02*
X179360000Y-103000000D01*
X177100000Y-103500000D02*
X179360000Y-103500000D01*
X177100000Y-104000000D02*
X177100000Y-103000000D01*
X179360000Y-98640000D02*
X171540000Y-98640000D01*
X179360000Y-102200000D02*
X175000000Y-102200000D01*
X179360000Y-104760000D02*
X179360000Y-98640000D01*
G04 #@! TO.C,U1*
X167990000Y-99840000D02*
X168465000Y-99840000D01*
X167990000Y-100315000D02*
X167990000Y-99840000D01*
X167990000Y-102585000D02*
X167990000Y-102760000D01*
X168465000Y-103060000D02*
X168230000Y-103060000D01*
X171210000Y-99840000D02*
X170735000Y-99840000D01*
X171210000Y-100315000D02*
X171210000Y-99840000D01*
X171210000Y-102585000D02*
X171210000Y-103060000D01*
X171210000Y-103060000D02*
X170735000Y-103060000D01*
X167990000Y-103060000D02*
X167660000Y-103300000D01*
X167660000Y-102820000D01*
X167990000Y-103060000D01*
G36*
X167990000Y-103060000D02*
G01*
X167660000Y-103300000D01*
X167660000Y-102820000D01*
X167990000Y-103060000D01*
G37*
G04 #@! TO.C,J10*
X162740000Y-95100000D02*
X166740000Y-95100000D01*
X162740000Y-95620000D02*
X162740000Y-95100000D01*
X162740000Y-96370000D02*
X166740000Y-96370000D01*
X162740000Y-96890000D02*
X162740000Y-96370000D01*
X162740000Y-97640000D02*
X166740000Y-97640000D01*
X162740000Y-98160000D02*
X162740000Y-97640000D01*
X166740000Y-94665000D02*
X167860000Y-94665000D01*
X166740000Y-95620000D02*
X162740000Y-95620000D01*
X166740000Y-96890000D02*
X162740000Y-96890000D01*
X166740000Y-97740000D02*
X162740000Y-97740000D01*
X166740000Y-97860000D02*
X162740000Y-97860000D01*
X166740000Y-97980000D02*
X162740000Y-97980000D01*
X166740000Y-98100000D02*
X162740000Y-98100000D01*
X166740000Y-98160000D02*
X162740000Y-98160000D01*
X166740000Y-98595000D02*
X166740000Y-94665000D01*
X167540000Y-97265000D02*
X166740000Y-97265000D01*
X167540000Y-98595000D02*
X166740000Y-98595000D01*
X167860000Y-94665000D02*
X167860000Y-94740323D01*
X167860000Y-95995000D02*
X166740000Y-95995000D01*
X167860000Y-96010323D02*
X167860000Y-95979677D01*
X169060000Y-97900000D02*
X169060000Y-98660000D01*
X169060000Y-98660000D02*
X168300000Y-98660000D01*
G04 #@! TO.C,C8*
X164190000Y-101742164D02*
X164190000Y-101957836D01*
X164910000Y-101742164D02*
X164910000Y-101957836D01*
G04 #@! TD*
%LPC*%
D13*
G04 #@! TO.C,J3*
X176650000Y-107550000D03*
G04 #@! TD*
D14*
G04 #@! TO.C,J4*
X176650000Y-96750000D03*
G04 #@! TD*
D15*
G04 #@! TO.C,C6*
X170300000Y-104420000D03*
X170300000Y-105380000D03*
G04 #@! TD*
D16*
G04 #@! TO.C,J1*
X172950000Y-106650000D03*
G04 #@! TD*
D17*
G04 #@! TO.C,J2*
X172950000Y-95850000D03*
G04 #@! TD*
D18*
G04 #@! TO.C,J11*
X168300000Y-108050000D03*
D19*
X168300000Y-106780000D03*
X168300000Y-105510000D03*
G04 #@! TD*
D20*
G04 #@! TO.C,C7*
X164525000Y-99850000D03*
X166075000Y-99850000D03*
G04 #@! TD*
D21*
G04 #@! TO.C,J9*
X173000000Y-102700000D03*
D22*
X173000000Y-100700000D03*
G04 #@! TD*
D23*
G04 #@! TO.C,U1*
X168850000Y-102907500D03*
X169350000Y-102907500D03*
X169850000Y-102907500D03*
X170350000Y-102907500D03*
D24*
X171057500Y-102200000D03*
X171057500Y-101700000D03*
X171057500Y-101200000D03*
X171057500Y-100700000D03*
D23*
X170350000Y-99992500D03*
X169850000Y-99992500D03*
X169350000Y-99992500D03*
X168850000Y-99992500D03*
D24*
X168142500Y-100700000D03*
X168142500Y-101200000D03*
X168142500Y-101700000D03*
X168142500Y-102200000D03*
D25*
X169600000Y-101450000D03*
G04 #@! TD*
D18*
G04 #@! TO.C,J10*
X168300000Y-97900000D03*
D19*
X168300000Y-96630000D03*
X168300000Y-95360000D03*
G04 #@! TD*
D15*
G04 #@! TO.C,C8*
X164550000Y-101370000D03*
X164550000Y-102330000D03*
G04 #@! TD*
G36*
X178361980Y-98502383D02*
G01*
X178421480Y-98514218D01*
X178466179Y-98532732D01*
X178506268Y-98559518D01*
X178540481Y-98593731D01*
X178567267Y-98633820D01*
X178585781Y-98678517D01*
X178597617Y-98738017D01*
X178600000Y-98762210D01*
X178600000Y-105537789D01*
X178597617Y-105561982D01*
X178585781Y-105621482D01*
X178567267Y-105666179D01*
X178540481Y-105706268D01*
X178506268Y-105740481D01*
X178466179Y-105767267D01*
X178421482Y-105785781D01*
X178361982Y-105797617D01*
X178337789Y-105800000D01*
X175362211Y-105800000D01*
X175338019Y-105797617D01*
X175278518Y-105785781D01*
X175233820Y-105767267D01*
X175193731Y-105740481D01*
X175159518Y-105706268D01*
X175132732Y-105666179D01*
X175114218Y-105621480D01*
X175102383Y-105561980D01*
X175100000Y-105537789D01*
X175100000Y-105149999D01*
X175099999Y-105149995D01*
X175080970Y-105054329D01*
X175080970Y-105054328D01*
X175026776Y-104973223D01*
X174945671Y-104919029D01*
X174850004Y-104900000D01*
X174462211Y-104900000D01*
X174438019Y-104897617D01*
X174378518Y-104885781D01*
X174333820Y-104867267D01*
X174293731Y-104840481D01*
X174259518Y-104806268D01*
X174232732Y-104766179D01*
X174214218Y-104721480D01*
X174202383Y-104661980D01*
X174200000Y-104637789D01*
X174200000Y-98762210D01*
X174202383Y-98738019D01*
X174214218Y-98678519D01*
X174232732Y-98633820D01*
X174259518Y-98593731D01*
X174293731Y-98559518D01*
X174333820Y-98532732D01*
X174378520Y-98514217D01*
X174438021Y-98502382D01*
X174462211Y-98500000D01*
X178337789Y-98500000D01*
X178361980Y-98502383D01*
G37*
%LPD*%
M02*
