M48
; DRILL file {KiCad 8.0.7-8.0.7-0~ubuntu24.04.1} date 2024-12-31T11:01:01-0700
; FORMAT={-:-/ absolute / metric / decimal}
; #@! TF.CreationDate,2024-12-31T11:01:01-07:00
; #@! TF.GenerationSoftware,Kicad,Pcbnew,8.0.7-8.0.7-0~ubuntu24.04.1
; #@! TF.FileFunction,Plated,1,4,PTH
FMAT,2
METRIC
; #@! TA.AperFunction,Plated,PTH,ViaDrill
T1C0.300
; #@! TA.AperFunction,Plated,PTH,ComponentDrill
T2C0.300
; #@! TA.AperFunction,Plated,PTH,ComponentDrill
T3C0.650
; #@! TA.AperFunction,Plated,PTH,ComponentDrill
T4C0.750
%
G90
G05
T1
X165.05Y-107.9
X165.05Y-108.7
X165.3Y-94.9
X165.3Y-95.7
X165.3Y-96.5
X165.5Y-101.7
X165.85Y-107.9
X165.85Y-108.7
X166.1Y-94.9
X166.1Y-95.7
X166.1Y-96.5
X166.65Y-107.9
X166.65Y-108.7
X166.7Y-97.8
X166.9Y-94.9
X166.9Y-95.7
X166.9Y-96.5
X168.25Y-103.882
X168.281Y-99.39
X168.4Y-103.075
X169.3Y-107.1
X169.3Y-107.9
X169.3Y-108.7
X169.5Y-104.1
X169.8Y-99.0
X170.1Y-107.1
X170.1Y-107.9
X170.1Y-108.7
X170.9Y-107.1
X170.9Y-107.9
X170.9Y-108.7
X171.85Y-97.8
X171.85Y-98.6
X171.85Y-99.4
X172.65Y-97.8
X172.65Y-98.6
X172.65Y-99.4
X173.45Y-97.8
X173.45Y-98.6
X173.45Y-99.4
X174.85Y-94.7
X175.65Y-94.7
X176.45Y-94.7
X177.25Y-94.7
X177.5Y-99.9
X177.5Y-101.4
X177.5Y-102.9
X177.5Y-104.4
X178.05Y-94.7
X178.3Y-98.95
X178.3Y-99.8
X178.3Y-100.7
X178.3Y-101.55
X178.3Y-102.4
X178.3Y-103.25
X178.3Y-104.1
T2
X169.05Y-100.9
X169.05Y-102.0
X170.15Y-100.9
X170.15Y-102.0
T3
X168.3Y-95.36
X168.3Y-96.63
X168.3Y-97.9
X168.3Y-105.51
X168.3Y-106.78
X168.3Y-108.05
T4
X173.0Y-100.7
X173.0Y-102.7
M30
