G04 #@! TF.GenerationSoftware,KiCad,Pcbnew,8.0.7-8.0.7-0~ubuntu24.04.1*
G04 #@! TF.CreationDate,2024-12-31T11:01:01-07:00*
G04 #@! TF.ProjectId,DRV8213 brushed Motor Driver,44525638-3231-4332-9062-727573686564,V1*
G04 #@! TF.SameCoordinates,Original*
G04 #@! TF.FileFunction,Soldermask,Top*
G04 #@! TF.FilePolarity,Negative*
%FSLAX46Y46*%
G04 Gerber Fmt 4.6, Leading zero omitted, Abs format (unit mm)*
G04 Created by KiCad (PCBNEW 8.0.7-8.0.7-0~ubuntu24.04.1) date 2024-12-31 11:01:01*
%MOMM*%
%LPD*%
G01*
G04 APERTURE LIST*
G04 Aperture macros list*
%AMRoundRect*
0 Rectangle with rounded corners*
0 $1 Rounding radius*
0 $2 $3 $4 $5 $6 $7 $8 $9 X,Y pos of 4 corners*
0 Add a 4 corners polygon primitive as box body*
4,1,4,$2,$3,$4,$5,$6,$7,$8,$9,$2,$3,0*
0 Add four circle primitives for the rounded corners*
1,1,$1+$1,$2,$3*
1,1,$1+$1,$4,$5*
1,1,$1+$1,$6,$7*
1,1,$1+$1,$8,$9*
0 Add four rect primitives between the rounded corners*
20,1,$1+$1,$2,$3,$4,$5,0*
20,1,$1+$1,$4,$5,$6,$7,0*
20,1,$1+$1,$6,$7,$8,$9,0*
20,1,$1+$1,$8,$9,$2,$3,0*%
G04 Aperture macros list end*
%ADD10RoundRect,0.102000X-1.400000X-1.400000X1.400000X-1.400000X1.400000X1.400000X-1.400000X1.400000X0*%
%ADD11RoundRect,0.100000X-1.250000X-1.400000X1.250000X-1.400000X1.250000X1.400000X-1.250000X1.400000X0*%
%ADD12RoundRect,0.140000X-0.170000X0.140000X-0.170000X-0.140000X0.170000X-0.140000X0.170000X0.140000X0*%
%ADD13RoundRect,0.100000X1.250000X1.400000X-1.250000X1.400000X-1.250000X-1.400000X1.250000X-1.400000X0*%
%ADD14RoundRect,0.102000X1.400000X1.400000X-1.400000X1.400000X-1.400000X-1.400000X1.400000X-1.400000X0*%
%ADD15R,1.000000X1.000000*%
%ADD16O,1.000000X1.000000*%
%ADD17RoundRect,0.225000X-0.225000X-0.250000X0.225000X-0.250000X0.225000X0.250000X-0.225000X0.250000X0*%
%ADD18RoundRect,0.250000X0.625000X-0.350000X0.625000X0.350000X-0.625000X0.350000X-0.625000X-0.350000X0*%
%ADD19O,1.750000X1.200000*%
%ADD20RoundRect,0.062500X0.062500X-0.355000X0.062500X0.355000X-0.062500X0.355000X-0.062500X-0.355000X0*%
%ADD21RoundRect,0.062500X0.355000X-0.062500X0.355000X0.062500X-0.355000X0.062500X-0.355000X-0.062500X0*%
%ADD22R,1.680000X1.680000*%
G04 APERTURE END LIST*
D10*
G04 #@! TO.C,J3*
X176650000Y-107550000D03*
G04 #@! TD*
D11*
G04 #@! TO.C,J4*
X176650000Y-96750000D03*
G04 #@! TD*
D12*
G04 #@! TO.C,C6*
X170300000Y-104420000D03*
X170300000Y-105380000D03*
G04 #@! TD*
D13*
G04 #@! TO.C,J1*
X172950000Y-106650000D03*
G04 #@! TD*
D14*
G04 #@! TO.C,J2*
X172950000Y-95850000D03*
G04 #@! TD*
D15*
G04 #@! TO.C,J11*
X168300000Y-108050000D03*
D16*
X168300000Y-106780000D03*
X168300000Y-105510000D03*
G04 #@! TD*
D17*
G04 #@! TO.C,C7*
X164525000Y-99850000D03*
X166075000Y-99850000D03*
G04 #@! TD*
D18*
G04 #@! TO.C,J9*
X173000000Y-102700000D03*
D19*
X173000000Y-100700000D03*
G04 #@! TD*
D20*
G04 #@! TO.C,U1*
X168850000Y-102907500D03*
X169350000Y-102907500D03*
X169850000Y-102907500D03*
X170350000Y-102907500D03*
D21*
X171057500Y-102200000D03*
X171057500Y-101700000D03*
X171057500Y-101200000D03*
X171057500Y-100700000D03*
D20*
X170350000Y-99992500D03*
X169850000Y-99992500D03*
X169350000Y-99992500D03*
X168850000Y-99992500D03*
D21*
X168142500Y-100700000D03*
X168142500Y-101200000D03*
X168142500Y-101700000D03*
X168142500Y-102200000D03*
D22*
X169600000Y-101450000D03*
G04 #@! TD*
D15*
G04 #@! TO.C,J10*
X168300000Y-97900000D03*
D16*
X168300000Y-96630000D03*
X168300000Y-95360000D03*
G04 #@! TD*
D12*
G04 #@! TO.C,C8*
X164550000Y-101370000D03*
X164550000Y-102330000D03*
G04 #@! TD*
G36*
X178361980Y-98502383D02*
G01*
X178421480Y-98514218D01*
X178466179Y-98532732D01*
X178506268Y-98559518D01*
X178540481Y-98593731D01*
X178567267Y-98633820D01*
X178585781Y-98678517D01*
X178597617Y-98738017D01*
X178600000Y-98762210D01*
X178600000Y-105537789D01*
X178597617Y-105561982D01*
X178585781Y-105621482D01*
X178567267Y-105666179D01*
X178540481Y-105706268D01*
X178506268Y-105740481D01*
X178466179Y-105767267D01*
X178421482Y-105785781D01*
X178361982Y-105797617D01*
X178337789Y-105800000D01*
X175362211Y-105800000D01*
X175338019Y-105797617D01*
X175278518Y-105785781D01*
X175233820Y-105767267D01*
X175193731Y-105740481D01*
X175159518Y-105706268D01*
X175132732Y-105666179D01*
X175114218Y-105621480D01*
X175102383Y-105561980D01*
X175100000Y-105537789D01*
X175100000Y-105149999D01*
X175099999Y-105149995D01*
X175080970Y-105054329D01*
X175080970Y-105054328D01*
X175026776Y-104973223D01*
X174945671Y-104919029D01*
X174850004Y-104900000D01*
X174462211Y-104900000D01*
X174438019Y-104897617D01*
X174378518Y-104885781D01*
X174333820Y-104867267D01*
X174293731Y-104840481D01*
X174259518Y-104806268D01*
X174232732Y-104766179D01*
X174214218Y-104721480D01*
X174202383Y-104661980D01*
X174200000Y-104637789D01*
X174200000Y-98762210D01*
X174202383Y-98738019D01*
X174214218Y-98678519D01*
X174232732Y-98633820D01*
X174259518Y-98593731D01*
X174293731Y-98559518D01*
X174333820Y-98532732D01*
X174378520Y-98514217D01*
X174438021Y-98502382D01*
X174462211Y-98500000D01*
X178337789Y-98500000D01*
X178361980Y-98502383D01*
G37*
M02*
