G04 #@! TF.GenerationSoftware,KiCad,Pcbnew,8.0.7-8.0.7-0~ubuntu24.04.1*
G04 #@! TF.CreationDate,2024-12-31T11:01:01-07:00*
G04 #@! TF.ProjectId,DRV8213 brushed Motor Driver,44525638-3231-4332-9062-727573686564,V1*
G04 #@! TF.SameCoordinates,Original*
G04 #@! TF.FileFunction,Copper,L3,Inr*
G04 #@! TF.FilePolarity,Positive*
%FSLAX46Y46*%
G04 Gerber Fmt 4.6, Leading zero omitted, Abs format (unit mm)*
G04 Created by KiCad (PCBNEW 8.0.7-8.0.7-0~ubuntu24.04.1) date 2024-12-31 11:01:01*
%MOMM*%
%LPD*%
G01*
G04 APERTURE LIST*
G04 Aperture macros list*
%AMRoundRect*
0 Rectangle with rounded corners*
0 $1 Rounding radius*
0 $2 $3 $4 $5 $6 $7 $8 $9 X,Y pos of 4 corners*
0 Add a 4 corners polygon primitive as box body*
4,1,4,$2,$3,$4,$5,$6,$7,$8,$9,$2,$3,0*
0 Add four circle primitives for the rounded corners*
1,1,$1+$1,$2,$3*
1,1,$1+$1,$4,$5*
1,1,$1+$1,$6,$7*
1,1,$1+$1,$8,$9*
0 Add four rect primitives between the rounded corners*
20,1,$1+$1,$2,$3,$4,$5,0*
20,1,$1+$1,$4,$5,$6,$7,0*
20,1,$1+$1,$6,$7,$8,$9,0*
20,1,$1+$1,$8,$9,$2,$3,0*%
G04 Aperture macros list end*
G04 #@! TA.AperFunction,ComponentPad*
%ADD10R,1.000000X1.000000*%
G04 #@! TD*
G04 #@! TA.AperFunction,ComponentPad*
%ADD11O,1.000000X1.000000*%
G04 #@! TD*
G04 #@! TA.AperFunction,ComponentPad*
%ADD12RoundRect,0.250000X0.625000X-0.350000X0.625000X0.350000X-0.625000X0.350000X-0.625000X-0.350000X0*%
G04 #@! TD*
G04 #@! TA.AperFunction,ComponentPad*
%ADD13O,1.750000X1.200000*%
G04 #@! TD*
G04 #@! TA.AperFunction,HeatsinkPad*
%ADD14C,0.600000*%
G04 #@! TD*
G04 #@! TA.AperFunction,ViaPad*
%ADD15C,0.600000*%
G04 #@! TD*
G04 APERTURE END LIST*
D10*
G04 #@! TO.N,/CSA-A*
G04 #@! TO.C,J11*
X168300000Y-108050000D03*
D11*
X168300000Y-106780000D03*
G04 #@! TO.N,/Fault*
X168300000Y-105510000D03*
G04 #@! TD*
D12*
G04 #@! TO.N,Net-(J9-Pin_1)*
G04 #@! TO.C,J9*
X173000000Y-102700000D03*
D13*
G04 #@! TO.N,Net-(J9-Pin_2)*
X173000000Y-100700000D03*
G04 #@! TD*
D14*
G04 #@! TO.N,GNDPWR*
G04 #@! TO.C,U1*
X169050000Y-102000000D03*
X170150000Y-102000000D03*
X169050000Y-100900000D03*
X170150000Y-100900000D03*
G04 #@! TD*
D10*
G04 #@! TO.N,Net-(J10-Pin_1)*
G04 #@! TO.C,J10*
X168300000Y-97900000D03*
D11*
G04 #@! TO.N,Net-(J10-Pin_2)*
X168300000Y-96630000D03*
G04 #@! TO.N,unconnected-(J10-Pin_3-Pad3)*
X168300000Y-95360000D03*
G04 #@! TD*
D15*
G04 #@! TO.N,VDD*
X176450000Y-94700000D03*
X178300000Y-103250000D03*
X177500000Y-101400000D03*
X178300000Y-104100000D03*
X177500000Y-104400000D03*
X177250000Y-94700000D03*
X165500000Y-101700000D03*
X178300000Y-102400000D03*
X174850000Y-94700000D03*
X178300000Y-100700000D03*
X178300000Y-98950000D03*
X177500000Y-102900000D03*
X177500000Y-99900000D03*
X178050000Y-94700000D03*
X178300000Y-99800000D03*
X175650000Y-94700000D03*
X178300000Y-101550000D03*
G04 #@! TO.N,/CSA-A*
X168400000Y-103075001D03*
G04 #@! TO.N,GNDPWR*
X166650000Y-108700000D03*
X170900000Y-107900000D03*
X169300000Y-108700000D03*
X173450000Y-97800000D03*
X169300000Y-107900000D03*
X165850000Y-108700000D03*
X170100000Y-107900000D03*
X166100000Y-95700000D03*
X170900000Y-108700000D03*
X170900000Y-107100000D03*
X165050000Y-107900000D03*
X166900000Y-96500000D03*
X165300000Y-96500000D03*
X172650000Y-99400000D03*
X172650000Y-98600000D03*
X166900000Y-94900000D03*
X166650000Y-107900000D03*
X172650000Y-97800000D03*
X173450000Y-98600000D03*
X165300000Y-95700000D03*
X166900000Y-95700000D03*
X171850000Y-98600000D03*
X165850000Y-107900000D03*
X169300000Y-107100000D03*
X173450000Y-99400000D03*
X170100000Y-108700000D03*
X165300000Y-94900000D03*
X171850000Y-99400000D03*
X171850000Y-97800000D03*
X166100000Y-94900000D03*
X170100000Y-107100000D03*
X165050000Y-108700000D03*
X166100000Y-96500000D03*
G04 #@! TO.N,/Fault*
X169500000Y-104100000D03*
G04 #@! TO.N,+3.3V*
X168281182Y-99389969D03*
X168250000Y-103881988D03*
G04 #@! TO.N,Net-(U1-TINRUSH)*
X169800000Y-99000000D03*
G04 #@! TO.N,Net-(J10-Pin_1)*
X166700000Y-97800000D03*
G04 #@! TD*
G04 #@! TA.AperFunction,Conductor*
G04 #@! TO.N,GNDPWR*
G36*
X168113123Y-94420462D02*
G01*
X168167661Y-94475000D01*
X168187623Y-94549500D01*
X168167661Y-94624000D01*
X168113123Y-94678538D01*
X168074281Y-94694170D01*
X168049775Y-94700209D01*
X167899145Y-94779267D01*
X167771820Y-94892067D01*
X167771817Y-94892071D01*
X167675181Y-95032070D01*
X167614860Y-95191125D01*
X167594355Y-95360000D01*
X167614860Y-95528874D01*
X167675181Y-95687929D01*
X167675182Y-95687930D01*
X167771817Y-95827929D01*
X167820616Y-95871161D01*
X167834512Y-95883472D01*
X167877038Y-95947817D01*
X167881695Y-96024804D01*
X167847234Y-96093806D01*
X167834512Y-96106528D01*
X167771817Y-96162071D01*
X167675181Y-96302070D01*
X167614860Y-96461125D01*
X167594355Y-96630000D01*
X167614860Y-96798874D01*
X167675181Y-96957929D01*
X167723565Y-97028024D01*
X167749458Y-97100676D01*
X167735555Y-97176541D01*
X167685583Y-97235290D01*
X167683726Y-97236551D01*
X167655452Y-97255444D01*
X167655448Y-97255448D01*
X167611132Y-97321769D01*
X167599500Y-97380251D01*
X167599500Y-98419753D01*
X167599720Y-98421989D01*
X167599500Y-98423320D01*
X167599500Y-98427068D01*
X167598881Y-98427068D01*
X167587149Y-98498085D01*
X167562896Y-98535462D01*
X167550000Y-98549998D01*
X167550000Y-99199999D01*
X167550000Y-99200000D01*
X167625388Y-99196984D01*
X167700625Y-99213952D01*
X167757300Y-99266266D01*
X167780224Y-99339909D01*
X167778827Y-99367066D01*
X167775535Y-99389966D01*
X167775535Y-99389972D01*
X167796016Y-99532423D01*
X167796016Y-99532424D01*
X167796017Y-99532426D01*
X167855805Y-99663342D01*
X167950054Y-99772112D01*
X168071129Y-99849922D01*
X168209221Y-99890469D01*
X168209223Y-99890469D01*
X168353141Y-99890469D01*
X168353143Y-99890469D01*
X168491235Y-99849922D01*
X168612310Y-99772112D01*
X168706559Y-99663342D01*
X168766347Y-99532426D01*
X168781065Y-99430058D01*
X168786829Y-99389972D01*
X168786829Y-99389966D01*
X168768883Y-99265149D01*
X168778039Y-99188566D01*
X168800000Y-99154537D01*
X168800000Y-98999996D01*
X169294353Y-98999996D01*
X169294353Y-99000003D01*
X169314834Y-99142454D01*
X169314834Y-99142455D01*
X169314835Y-99142457D01*
X169374623Y-99273373D01*
X169468872Y-99382143D01*
X169589947Y-99459953D01*
X169728039Y-99500500D01*
X169728041Y-99500500D01*
X169871959Y-99500500D01*
X169871961Y-99500500D01*
X170010053Y-99459953D01*
X170131128Y-99382143D01*
X170225377Y-99273373D01*
X170285165Y-99142457D01*
X170305647Y-99000000D01*
X170305647Y-98999996D01*
X170285165Y-98857545D01*
X170285165Y-98857543D01*
X170225377Y-98726627D01*
X170131128Y-98617857D01*
X170131127Y-98617856D01*
X170097465Y-98596223D01*
X170010053Y-98540047D01*
X170010050Y-98540046D01*
X169871967Y-98499501D01*
X169871962Y-98499500D01*
X169871961Y-98499500D01*
X169728039Y-98499500D01*
X169728037Y-98499500D01*
X169728032Y-98499501D01*
X169589949Y-98540046D01*
X169468872Y-98617856D01*
X169468870Y-98617859D01*
X169374622Y-98726628D01*
X169314834Y-98857545D01*
X169294353Y-98999996D01*
X168800000Y-98999996D01*
X168800000Y-98720782D01*
X168819962Y-98646282D01*
X168866218Y-98596894D01*
X168878231Y-98588867D01*
X168944552Y-98544552D01*
X168988867Y-98478231D01*
X169000500Y-98419748D01*
X169000500Y-97380252D01*
X168988867Y-97321769D01*
X168944552Y-97255448D01*
X168944411Y-97255354D01*
X168916274Y-97236552D01*
X168865422Y-97178563D01*
X168850377Y-97102916D01*
X168875172Y-97029882D01*
X168876317Y-97028195D01*
X168924818Y-96957930D01*
X168985140Y-96798872D01*
X169005645Y-96630000D01*
X168985140Y-96461128D01*
X168924818Y-96302070D01*
X168828183Y-96162071D01*
X168828180Y-96162068D01*
X168828179Y-96162067D01*
X168765488Y-96106528D01*
X168722961Y-96042184D01*
X168718304Y-95965197D01*
X168752765Y-95896195D01*
X168765488Y-95883472D01*
X168787036Y-95864381D01*
X168828183Y-95827929D01*
X168924818Y-95687930D01*
X168985140Y-95528872D01*
X169005645Y-95360000D01*
X168985140Y-95191128D01*
X168973317Y-95159954D01*
X168924818Y-95032070D01*
X168884302Y-94973373D01*
X168828183Y-94892071D01*
X168828180Y-94892068D01*
X168828179Y-94892067D01*
X168700853Y-94779267D01*
X168700854Y-94779267D01*
X168550224Y-94700209D01*
X168525719Y-94694170D01*
X168458161Y-94656959D01*
X168418260Y-94590955D01*
X168416707Y-94513842D01*
X168453918Y-94446284D01*
X168519922Y-94406383D01*
X168561377Y-94400500D01*
X174215459Y-94400500D01*
X174289959Y-94420462D01*
X174344497Y-94475000D01*
X174364459Y-94549500D01*
X174362942Y-94570705D01*
X174344353Y-94699996D01*
X174344353Y-94700003D01*
X174364834Y-94842454D01*
X174364834Y-94842455D01*
X174364835Y-94842457D01*
X174424623Y-94973373D01*
X174518872Y-95082143D01*
X174639947Y-95159953D01*
X174778039Y-95200500D01*
X174778041Y-95200500D01*
X174921959Y-95200500D01*
X174921961Y-95200500D01*
X175060053Y-95159953D01*
X175169445Y-95089650D01*
X175242911Y-95066167D01*
X175318276Y-95082562D01*
X175330552Y-95089649D01*
X175439947Y-95159953D01*
X175578039Y-95200500D01*
X175578041Y-95200500D01*
X175721959Y-95200500D01*
X175721961Y-95200500D01*
X175860053Y-95159953D01*
X175969445Y-95089650D01*
X176042911Y-95066167D01*
X176118276Y-95082562D01*
X176130552Y-95089649D01*
X176239947Y-95159953D01*
X176378039Y-95200500D01*
X176378041Y-95200500D01*
X176521959Y-95200500D01*
X176521961Y-95200500D01*
X176660053Y-95159953D01*
X176769445Y-95089650D01*
X176842911Y-95066167D01*
X176918276Y-95082562D01*
X176930552Y-95089649D01*
X177039947Y-95159953D01*
X177178039Y-95200500D01*
X177178041Y-95200500D01*
X177321959Y-95200500D01*
X177321961Y-95200500D01*
X177460053Y-95159953D01*
X177569445Y-95089650D01*
X177642911Y-95066167D01*
X177718276Y-95082562D01*
X177730552Y-95089649D01*
X177839947Y-95159953D01*
X177978039Y-95200500D01*
X177978041Y-95200500D01*
X178121959Y-95200500D01*
X178121961Y-95200500D01*
X178260053Y-95159953D01*
X178369948Y-95089327D01*
X178443410Y-95065845D01*
X178518776Y-95082239D01*
X178575847Y-95134120D01*
X178599331Y-95207586D01*
X178599500Y-95214676D01*
X178599500Y-98317270D01*
X178579538Y-98391770D01*
X178525000Y-98446308D01*
X178450500Y-98466270D01*
X178408524Y-98460235D01*
X178371965Y-98449501D01*
X178371963Y-98449500D01*
X178371961Y-98449500D01*
X178228039Y-98449500D01*
X178228037Y-98449500D01*
X178228032Y-98449501D01*
X178089949Y-98490046D01*
X177968872Y-98567856D01*
X177968870Y-98567859D01*
X177874622Y-98676628D01*
X177814834Y-98807545D01*
X177794353Y-98949996D01*
X177794353Y-98950003D01*
X177814834Y-99092456D01*
X177878848Y-99232626D01*
X177891638Y-99308686D01*
X177864685Y-99380951D01*
X177805210Y-99430058D01*
X177729150Y-99442848D01*
X177701335Y-99437487D01*
X177571967Y-99399501D01*
X177571962Y-99399500D01*
X177571961Y-99399500D01*
X177428039Y-99399500D01*
X177428037Y-99399500D01*
X177428032Y-99399501D01*
X177289949Y-99440046D01*
X177168872Y-99517856D01*
X177168870Y-99517859D01*
X177074622Y-99626628D01*
X177014834Y-99757545D01*
X176994353Y-99899996D01*
X176994353Y-99900003D01*
X177014834Y-100042454D01*
X177014834Y-100042455D01*
X177014835Y-100042457D01*
X177074623Y-100173373D01*
X177168872Y-100282143D01*
X177289947Y-100359953D01*
X177428039Y-100400500D01*
X177428041Y-100400500D01*
X177571959Y-100400500D01*
X177571961Y-100400500D01*
X177571963Y-100400499D01*
X177571965Y-100400499D01*
X177592734Y-100394400D01*
X177626657Y-100384439D01*
X177703762Y-100382604D01*
X177771456Y-100419567D01*
X177811599Y-100485425D01*
X177816119Y-100548608D01*
X177794353Y-100700000D01*
X177801108Y-100746985D01*
X177791950Y-100823567D01*
X177745728Y-100885311D01*
X177674827Y-100915672D01*
X177611646Y-100911152D01*
X177571967Y-100899501D01*
X177571962Y-100899500D01*
X177571961Y-100899500D01*
X177428039Y-100899500D01*
X177428037Y-100899500D01*
X177428032Y-100899501D01*
X177289949Y-100940046D01*
X177168872Y-101017856D01*
X177168870Y-101017859D01*
X177074622Y-101126628D01*
X177014834Y-101257545D01*
X176994353Y-101399996D01*
X176994353Y-101400003D01*
X177014834Y-101542454D01*
X177014834Y-101542455D01*
X177014835Y-101542457D01*
X177074623Y-101673373D01*
X177168872Y-101782143D01*
X177289947Y-101859953D01*
X177428039Y-101900500D01*
X177428041Y-101900500D01*
X177571959Y-101900500D01*
X177571961Y-101900500D01*
X177710053Y-101859953D01*
X177727505Y-101848736D01*
X177800967Y-101825253D01*
X177876333Y-101841647D01*
X177920648Y-101876489D01*
X177921443Y-101877407D01*
X177955155Y-101946776D01*
X177949667Y-102023708D01*
X177921461Y-102072571D01*
X177888693Y-102110388D01*
X177874622Y-102126628D01*
X177814834Y-102257544D01*
X177809884Y-102291972D01*
X177779522Y-102362872D01*
X177717777Y-102409093D01*
X177641194Y-102418248D01*
X177620423Y-102413729D01*
X177571967Y-102399501D01*
X177571962Y-102399500D01*
X177571961Y-102399500D01*
X177428039Y-102399500D01*
X177428037Y-102399500D01*
X177428032Y-102399501D01*
X177289949Y-102440046D01*
X177168872Y-102517856D01*
X177168870Y-102517859D01*
X177074622Y-102626628D01*
X177014834Y-102757545D01*
X176994353Y-102899996D01*
X176994353Y-102900003D01*
X177014834Y-103042454D01*
X177014834Y-103042455D01*
X177014835Y-103042457D01*
X177074623Y-103173373D01*
X177168872Y-103282143D01*
X177289947Y-103359953D01*
X177428039Y-103400500D01*
X177428041Y-103400500D01*
X177571959Y-103400500D01*
X177571961Y-103400500D01*
X177571963Y-103400499D01*
X177571965Y-103400499D01*
X177599353Y-103392457D01*
X177665479Y-103373040D01*
X177742582Y-103371205D01*
X177810276Y-103408168D01*
X177842989Y-103454106D01*
X177874623Y-103523373D01*
X177906449Y-103560102D01*
X177921461Y-103577427D01*
X177955161Y-103646803D01*
X177949658Y-103723734D01*
X177921461Y-103772573D01*
X177874622Y-103826628D01*
X177863125Y-103851804D01*
X177814017Y-103911279D01*
X177741752Y-103938231D01*
X177685614Y-103932871D01*
X177571961Y-103899500D01*
X177428039Y-103899500D01*
X177428037Y-103899500D01*
X177428032Y-103899501D01*
X177289949Y-103940046D01*
X177168872Y-104017856D01*
X177168870Y-104017859D01*
X177074622Y-104126628D01*
X177014834Y-104257545D01*
X176994353Y-104399996D01*
X176994353Y-104400003D01*
X177014834Y-104542454D01*
X177014834Y-104542455D01*
X177014835Y-104542457D01*
X177074623Y-104673373D01*
X177168872Y-104782143D01*
X177289947Y-104859953D01*
X177428039Y-104900500D01*
X177428041Y-104900500D01*
X177571959Y-104900500D01*
X177571961Y-104900500D01*
X177710053Y-104859953D01*
X177831128Y-104782143D01*
X177925377Y-104673373D01*
X177936874Y-104648196D01*
X177985977Y-104588723D01*
X178058242Y-104561768D01*
X178114385Y-104567128D01*
X178228039Y-104600500D01*
X178228041Y-104600500D01*
X178371959Y-104600500D01*
X178371961Y-104600500D01*
X178371963Y-104600499D01*
X178371965Y-104600499D01*
X178408521Y-104589765D01*
X178485627Y-104587929D01*
X178553321Y-104624892D01*
X178593464Y-104690750D01*
X178599500Y-104732729D01*
X178599500Y-108850500D01*
X178579538Y-108925000D01*
X178525000Y-108979538D01*
X178450500Y-108999500D01*
X168979353Y-108999500D01*
X168904853Y-108979538D01*
X168850315Y-108925000D01*
X168830353Y-108850500D01*
X168850315Y-108776000D01*
X168896569Y-108726613D01*
X168944552Y-108694552D01*
X168988867Y-108628231D01*
X169000500Y-108569748D01*
X169000500Y-107530252D01*
X168988867Y-107471769D01*
X168944552Y-107405448D01*
X168944411Y-107405354D01*
X168916274Y-107386552D01*
X168865422Y-107328563D01*
X168850377Y-107252916D01*
X168875172Y-107179882D01*
X168876317Y-107178195D01*
X168924818Y-107107930D01*
X168985140Y-106948872D01*
X169005645Y-106780000D01*
X168985140Y-106611128D01*
X168924818Y-106452070D01*
X168828183Y-106312071D01*
X168828180Y-106312068D01*
X168828179Y-106312067D01*
X168765488Y-106256528D01*
X168722961Y-106192184D01*
X168718304Y-106115197D01*
X168752765Y-106046195D01*
X168765488Y-106033472D01*
X168787036Y-106014381D01*
X168828183Y-105977929D01*
X168924818Y-105837930D01*
X168985140Y-105678872D01*
X169005645Y-105510000D01*
X168985140Y-105341128D01*
X168924818Y-105182070D01*
X168828183Y-105042071D01*
X168828180Y-105042068D01*
X168828179Y-105042067D01*
X168700853Y-104929267D01*
X168700854Y-104929267D01*
X168550224Y-104850209D01*
X168385056Y-104809500D01*
X168214944Y-104809500D01*
X168049775Y-104850209D01*
X167899145Y-104929267D01*
X167771820Y-105042067D01*
X167771817Y-105042071D01*
X167675181Y-105182070D01*
X167614860Y-105341125D01*
X167594355Y-105510000D01*
X167614860Y-105678874D01*
X167675181Y-105837929D01*
X167675182Y-105837930D01*
X167771817Y-105977929D01*
X167820616Y-106021161D01*
X167834512Y-106033472D01*
X167877038Y-106097817D01*
X167881695Y-106174804D01*
X167847234Y-106243806D01*
X167834512Y-106256528D01*
X167771817Y-106312071D01*
X167675181Y-106452070D01*
X167614860Y-106611125D01*
X167594355Y-106780000D01*
X167614860Y-106948874D01*
X167675181Y-107107929D01*
X167723565Y-107178024D01*
X167749458Y-107250676D01*
X167735555Y-107326541D01*
X167685583Y-107385290D01*
X167683726Y-107386551D01*
X167655452Y-107405444D01*
X167655448Y-107405448D01*
X167611132Y-107471769D01*
X167599500Y-107530251D01*
X167599500Y-108569748D01*
X167611132Y-108628230D01*
X167611133Y-108628231D01*
X167655448Y-108694552D01*
X167703429Y-108726612D01*
X167754282Y-108784601D01*
X167769328Y-108860247D01*
X167744535Y-108933282D01*
X167686546Y-108984135D01*
X167620647Y-108999500D01*
X164149500Y-108999500D01*
X164075000Y-108979538D01*
X164020462Y-108925000D01*
X164000500Y-108850500D01*
X164000500Y-103881984D01*
X167744353Y-103881984D01*
X167744353Y-103881991D01*
X167764834Y-104024442D01*
X167764834Y-104024443D01*
X167764835Y-104024445D01*
X167824623Y-104155361D01*
X167918872Y-104264131D01*
X168039947Y-104341941D01*
X168178039Y-104382488D01*
X168178041Y-104382488D01*
X168321959Y-104382488D01*
X168321961Y-104382488D01*
X168460053Y-104341941D01*
X168581128Y-104264131D01*
X168675377Y-104155361D01*
X168713228Y-104072478D01*
X168762334Y-104013004D01*
X168834600Y-103986051D01*
X168910660Y-103998841D01*
X168970135Y-104047947D01*
X168996246Y-104113171D01*
X169014834Y-104242454D01*
X169014834Y-104242455D01*
X169014835Y-104242457D01*
X169074623Y-104373373D01*
X169168872Y-104482143D01*
X169289947Y-104559953D01*
X169428039Y-104600500D01*
X169428041Y-104600500D01*
X169571959Y-104600500D01*
X169571961Y-104600500D01*
X169710053Y-104559953D01*
X169831128Y-104482143D01*
X169925377Y-104373373D01*
X169985165Y-104242457D01*
X170001819Y-104126627D01*
X170005647Y-104100003D01*
X170005647Y-104099996D01*
X169985165Y-103957545D01*
X169985165Y-103957543D01*
X169925377Y-103826627D01*
X169831128Y-103717857D01*
X169831127Y-103717856D01*
X169764441Y-103675000D01*
X169710053Y-103640047D01*
X169696822Y-103636162D01*
X169571967Y-103599501D01*
X169571962Y-103599500D01*
X169571961Y-103599500D01*
X169428039Y-103599500D01*
X169428037Y-103599500D01*
X169428032Y-103599501D01*
X169289949Y-103640046D01*
X169289947Y-103640046D01*
X169289947Y-103640047D01*
X169270618Y-103652469D01*
X169168872Y-103717856D01*
X169168870Y-103717859D01*
X169074621Y-103826629D01*
X169036770Y-103909510D01*
X168987663Y-103968984D01*
X168915397Y-103995936D01*
X168839337Y-103983145D01*
X168779863Y-103934038D01*
X168753753Y-103868819D01*
X168735165Y-103739531D01*
X168687956Y-103636160D01*
X168675167Y-103560102D01*
X168702120Y-103487836D01*
X168725924Y-103461652D01*
X168731118Y-103457150D01*
X168731128Y-103457144D01*
X168825377Y-103348374D01*
X168885165Y-103217458D01*
X168901438Y-103104275D01*
X168905647Y-103075004D01*
X168905647Y-103074997D01*
X168885165Y-102932546D01*
X168885165Y-102932544D01*
X168825377Y-102801628D01*
X168731128Y-102692858D01*
X168731127Y-102692857D01*
X168697465Y-102671224D01*
X168610053Y-102615048D01*
X168610050Y-102615047D01*
X168471967Y-102574502D01*
X168471962Y-102574501D01*
X168471961Y-102574501D01*
X168328039Y-102574501D01*
X168328037Y-102574501D01*
X168328032Y-102574502D01*
X168189949Y-102615047D01*
X168068872Y-102692857D01*
X168068870Y-102692860D01*
X167974622Y-102801629D01*
X167914834Y-102932546D01*
X167894353Y-103074997D01*
X167894353Y-103075004D01*
X167914834Y-103217455D01*
X167914834Y-103217456D01*
X167914835Y-103217458D01*
X167962042Y-103320825D01*
X167974832Y-103396886D01*
X167947879Y-103469151D01*
X167924085Y-103495327D01*
X167918872Y-103499844D01*
X167824622Y-103608616D01*
X167764834Y-103739533D01*
X167744353Y-103881984D01*
X164000500Y-103881984D01*
X164000500Y-102295724D01*
X171924500Y-102295724D01*
X171924500Y-103104275D01*
X171927353Y-103134695D01*
X171972207Y-103262883D01*
X172052848Y-103372148D01*
X172052851Y-103372151D01*
X172162116Y-103452792D01*
X172162117Y-103452792D01*
X172162118Y-103452793D01*
X172290301Y-103497646D01*
X172320734Y-103500500D01*
X172320741Y-103500500D01*
X173679259Y-103500500D01*
X173679266Y-103500500D01*
X173709699Y-103497646D01*
X173837882Y-103452793D01*
X173947150Y-103372150D01*
X174027793Y-103262882D01*
X174072646Y-103134699D01*
X174075500Y-103104266D01*
X174075500Y-102295734D01*
X174072646Y-102265301D01*
X174027793Y-102137118D01*
X174020051Y-102126628D01*
X173947151Y-102027851D01*
X173947148Y-102027848D01*
X173837883Y-101947207D01*
X173778042Y-101926268D01*
X173709699Y-101902354D01*
X173709697Y-101902353D01*
X173709695Y-101902353D01*
X173679275Y-101899500D01*
X173679266Y-101899500D01*
X172320734Y-101899500D01*
X172320724Y-101899500D01*
X172290304Y-101902353D01*
X172162116Y-101947207D01*
X172052851Y-102027848D01*
X172052848Y-102027851D01*
X171972207Y-102137116D01*
X171927353Y-102265304D01*
X171924500Y-102295724D01*
X164000500Y-102295724D01*
X164000500Y-101699996D01*
X164994353Y-101699996D01*
X164994353Y-101700003D01*
X165014834Y-101842454D01*
X165014834Y-101842455D01*
X165014835Y-101842457D01*
X165074623Y-101973373D01*
X165168872Y-102082143D01*
X165289947Y-102159953D01*
X165428039Y-102200500D01*
X165428041Y-102200500D01*
X165571959Y-102200500D01*
X165571961Y-102200500D01*
X165710053Y-102159953D01*
X165831128Y-102082143D01*
X165925377Y-101973373D01*
X165985165Y-101842457D01*
X166005647Y-101700000D01*
X166005647Y-101699996D01*
X165985165Y-101557545D01*
X165985165Y-101557543D01*
X165925377Y-101426627D01*
X165831128Y-101317857D01*
X165831127Y-101317856D01*
X165797465Y-101296223D01*
X165710053Y-101240047D01*
X165710050Y-101240046D01*
X165571967Y-101199501D01*
X165571962Y-101199500D01*
X165571961Y-101199500D01*
X165428039Y-101199500D01*
X165428037Y-101199500D01*
X165428032Y-101199501D01*
X165289949Y-101240046D01*
X165168872Y-101317856D01*
X165168870Y-101317859D01*
X165074622Y-101426628D01*
X165014834Y-101557545D01*
X164994353Y-101699996D01*
X164000500Y-101699996D01*
X164000500Y-100621157D01*
X171924500Y-100621157D01*
X171924500Y-100778842D01*
X171955262Y-100933494D01*
X171955263Y-100933498D01*
X172015604Y-101079176D01*
X172015605Y-101079178D01*
X172015606Y-101079179D01*
X172103211Y-101210289D01*
X172214711Y-101321789D01*
X172345821Y-101409394D01*
X172491503Y-101469737D01*
X172646158Y-101500500D01*
X173353842Y-101500500D01*
X173508497Y-101469737D01*
X173654179Y-101409394D01*
X173785289Y-101321789D01*
X173896789Y-101210289D01*
X173984394Y-101079179D01*
X174044737Y-100933497D01*
X174075500Y-100778842D01*
X174075500Y-100621158D01*
X174044737Y-100466503D01*
X173984394Y-100320821D01*
X173896789Y-100189711D01*
X173785289Y-100078211D01*
X173654179Y-99990606D01*
X173654178Y-99990605D01*
X173654176Y-99990604D01*
X173508498Y-99930263D01*
X173508494Y-99930262D01*
X173353842Y-99899500D01*
X172646158Y-99899500D01*
X172491505Y-99930262D01*
X172491501Y-99930263D01*
X172345823Y-99990604D01*
X172214707Y-100078214D01*
X172103214Y-100189707D01*
X172103211Y-100189710D01*
X172103211Y-100189711D01*
X172074278Y-100233012D01*
X172015604Y-100320823D01*
X171955263Y-100466501D01*
X171955262Y-100466505D01*
X171924500Y-100621157D01*
X164000500Y-100621157D01*
X164000500Y-97799996D01*
X166194353Y-97799996D01*
X166194353Y-97800003D01*
X166214834Y-97942454D01*
X166214834Y-97942455D01*
X166214835Y-97942457D01*
X166274623Y-98073373D01*
X166368872Y-98182143D01*
X166489947Y-98259953D01*
X166628039Y-98300500D01*
X166628041Y-98300500D01*
X166771959Y-98300500D01*
X166771961Y-98300500D01*
X166910053Y-98259953D01*
X167031128Y-98182143D01*
X167125377Y-98073373D01*
X167185165Y-97942457D01*
X167205647Y-97800000D01*
X167205647Y-97799996D01*
X167185165Y-97657545D01*
X167185165Y-97657543D01*
X167125377Y-97526627D01*
X167031128Y-97417857D01*
X167031127Y-97417856D01*
X166972613Y-97380252D01*
X166910053Y-97340047D01*
X166910050Y-97340046D01*
X166771967Y-97299501D01*
X166771962Y-97299500D01*
X166771961Y-97299500D01*
X166628039Y-97299500D01*
X166628037Y-97299500D01*
X166628032Y-97299501D01*
X166489949Y-97340046D01*
X166368872Y-97417856D01*
X166368870Y-97417859D01*
X166274622Y-97526628D01*
X166214834Y-97657545D01*
X166194353Y-97799996D01*
X164000500Y-97799996D01*
X164000500Y-94549500D01*
X164020462Y-94475000D01*
X164075000Y-94420462D01*
X164149500Y-94400500D01*
X168038623Y-94400500D01*
X168113123Y-94420462D01*
G37*
G04 #@! TD.AperFunction*
G04 #@! TD*
M02*
