G04 #@! TF.GenerationSoftware,KiCad,Pcbnew,8.0.7-8.0.7-0~ubuntu24.04.1*
G04 #@! TF.CreationDate,2024-12-31T11:01:01-07:00*
G04 #@! TF.ProjectId,DRV8213 brushed Motor Driver,44525638-3231-4332-9062-727573686564,V1*
G04 #@! TF.SameCoordinates,Original*
G04 #@! TF.FileFunction,Legend,Bot*
G04 #@! TF.FilePolarity,Positive*
%FSLAX46Y46*%
G04 Gerber Fmt 4.6, Leading zero omitted, Abs format (unit mm)*
G04 Created by KiCad (PCBNEW 8.0.7-8.0.7-0~ubuntu24.04.1) date 2024-12-31 11:01:01*
%MOMM*%
%LPD*%
G01*
G04 APERTURE LIST*
G04 Aperture macros list*
%AMRoundRect*
0 Rectangle with rounded corners*
0 $1 Rounding radius*
0 $2 $3 $4 $5 $6 $7 $8 $9 X,Y pos of 4 corners*
0 Add a 4 corners polygon primitive as box body*
4,1,4,$2,$3,$4,$5,$6,$7,$8,$9,$2,$3,0*
0 Add four circle primitives for the rounded corners*
1,1,$1+$1,$2,$3*
1,1,$1+$1,$4,$5*
1,1,$1+$1,$6,$7*
1,1,$1+$1,$8,$9*
0 Add four rect primitives between the rounded corners*
20,1,$1+$1,$2,$3,$4,$5,0*
20,1,$1+$1,$4,$5,$6,$7,0*
20,1,$1+$1,$6,$7,$8,$9,0*
20,1,$1+$1,$8,$9,$2,$3,0*%
G04 Aperture macros list end*
%ADD10C,0.120000*%
%ADD11C,0.150000*%
%ADD12C,0.127000*%
%ADD13R,1.000000X1.000000*%
%ADD14O,1.000000X1.000000*%
%ADD15RoundRect,0.250000X0.625000X-0.350000X0.625000X0.350000X-0.625000X0.350000X-0.625000X-0.350000X0*%
%ADD16O,1.750000X1.200000*%
%ADD17C,1.000000*%
%ADD18RoundRect,0.100000X1.250000X1.400000X-1.250000X1.400000X-1.250000X-1.400000X1.250000X-1.400000X0*%
%ADD19RoundRect,0.100000X-1.250000X-1.400000X1.250000X-1.400000X1.250000X1.400000X-1.250000X1.400000X0*%
%ADD20RoundRect,0.225000X0.225000X0.250000X-0.225000X0.250000X-0.225000X-0.250000X0.225000X-0.250000X0*%
%ADD21RoundRect,0.102000X1.400000X1.400000X-1.400000X1.400000X-1.400000X-1.400000X1.400000X-1.400000X0*%
%ADD22RoundRect,0.102000X-1.400000X-1.400000X1.400000X-1.400000X1.400000X1.400000X-1.400000X1.400000X0*%
%ADD23RoundRect,0.140000X-0.140000X-0.170000X0.140000X-0.170000X0.140000X0.170000X-0.140000X0.170000X0*%
%ADD24RoundRect,0.135000X0.185000X-0.135000X0.185000X0.135000X-0.185000X0.135000X-0.185000X-0.135000X0*%
%ADD25RoundRect,0.150000X-0.150000X0.512500X-0.150000X-0.512500X0.150000X-0.512500X0.150000X0.512500X0*%
%ADD26RoundRect,0.135000X-0.135000X-0.185000X0.135000X-0.185000X0.135000X0.185000X-0.135000X0.185000X0*%
G04 APERTURE END LIST*
D10*
X169100000Y-105400000D02*
X169900000Y-104700000D01*
D11*
X173701316Y-98303152D02*
X174463220Y-98588866D01*
X174463220Y-98588866D02*
X173701316Y-98874580D01*
X173272744Y-98065057D02*
X173225125Y-98017438D01*
X173225125Y-98017438D02*
X173129887Y-97969819D01*
X173129887Y-97969819D02*
X172891792Y-97969819D01*
X172891792Y-97969819D02*
X172796554Y-98017438D01*
X172796554Y-98017438D02*
X172748935Y-98065057D01*
X172748935Y-98065057D02*
X172701316Y-98160295D01*
X172701316Y-98160295D02*
X172701316Y-98255533D01*
X172701316Y-98255533D02*
X172748935Y-98398390D01*
X172748935Y-98398390D02*
X173320363Y-98969819D01*
X173320363Y-98969819D02*
X172701316Y-98969819D01*
X172082268Y-97969819D02*
X171987030Y-97969819D01*
X171987030Y-97969819D02*
X171891792Y-98017438D01*
X171891792Y-98017438D02*
X171844173Y-98065057D01*
X171844173Y-98065057D02*
X171796554Y-98160295D01*
X171796554Y-98160295D02*
X171748935Y-98350771D01*
X171748935Y-98350771D02*
X171748935Y-98588866D01*
X171748935Y-98588866D02*
X171796554Y-98779342D01*
X171796554Y-98779342D02*
X171844173Y-98874580D01*
X171844173Y-98874580D02*
X171891792Y-98922200D01*
X171891792Y-98922200D02*
X171987030Y-98969819D01*
X171987030Y-98969819D02*
X172082268Y-98969819D01*
X172082268Y-98969819D02*
X172177506Y-98922200D01*
X172177506Y-98922200D02*
X172225125Y-98874580D01*
X172225125Y-98874580D02*
X172272744Y-98779342D01*
X172272744Y-98779342D02*
X172320363Y-98588866D01*
X172320363Y-98588866D02*
X172320363Y-98350771D01*
X172320363Y-98350771D02*
X172272744Y-98160295D01*
X172272744Y-98160295D02*
X172225125Y-98065057D01*
X172225125Y-98065057D02*
X172177506Y-98017438D01*
X172177506Y-98017438D02*
X172082268Y-97969819D01*
X171367982Y-98684104D02*
X170891792Y-98684104D01*
X171463220Y-98969819D02*
X171129887Y-97969819D01*
X171129887Y-97969819D02*
X170796554Y-98969819D01*
X171146009Y-100953696D02*
X171193628Y-101096553D01*
X171193628Y-101096553D02*
X171241247Y-101144172D01*
X171241247Y-101144172D02*
X171336485Y-101191791D01*
X171336485Y-101191791D02*
X171479342Y-101191791D01*
X171479342Y-101191791D02*
X171574580Y-101144172D01*
X171574580Y-101144172D02*
X171622200Y-101096553D01*
X171622200Y-101096553D02*
X171669819Y-101001315D01*
X171669819Y-101001315D02*
X171669819Y-100620363D01*
X171669819Y-100620363D02*
X170669819Y-100620363D01*
X170669819Y-100620363D02*
X170669819Y-100953696D01*
X170669819Y-100953696D02*
X170717438Y-101048934D01*
X170717438Y-101048934D02*
X170765057Y-101096553D01*
X170765057Y-101096553D02*
X170860295Y-101144172D01*
X170860295Y-101144172D02*
X170955533Y-101144172D01*
X170955533Y-101144172D02*
X171050771Y-101096553D01*
X171050771Y-101096553D02*
X171098390Y-101048934D01*
X171098390Y-101048934D02*
X171146009Y-100953696D01*
X171146009Y-100953696D02*
X171146009Y-100620363D01*
X171384104Y-102334649D02*
X171384104Y-102810839D01*
X171669819Y-102239411D02*
X170669819Y-102572744D01*
X170669819Y-102572744D02*
X171669819Y-102906077D01*
X172529887Y-103946009D02*
X172863220Y-103946009D01*
X172863220Y-104469819D02*
X172863220Y-103469819D01*
X172863220Y-103469819D02*
X172387030Y-103469819D01*
X171577506Y-104469819D02*
X171577506Y-103946009D01*
X171577506Y-103946009D02*
X171625125Y-103850771D01*
X171625125Y-103850771D02*
X171720363Y-103803152D01*
X171720363Y-103803152D02*
X171910839Y-103803152D01*
X171910839Y-103803152D02*
X172006077Y-103850771D01*
X171577506Y-104422200D02*
X171672744Y-104469819D01*
X171672744Y-104469819D02*
X171910839Y-104469819D01*
X171910839Y-104469819D02*
X172006077Y-104422200D01*
X172006077Y-104422200D02*
X172053696Y-104326961D01*
X172053696Y-104326961D02*
X172053696Y-104231723D01*
X172053696Y-104231723D02*
X172006077Y-104136485D01*
X172006077Y-104136485D02*
X171910839Y-104088866D01*
X171910839Y-104088866D02*
X171672744Y-104088866D01*
X171672744Y-104088866D02*
X171577506Y-104041247D01*
X170672744Y-103803152D02*
X170672744Y-104469819D01*
X171101315Y-103803152D02*
X171101315Y-104326961D01*
X171101315Y-104326961D02*
X171053696Y-104422200D01*
X171053696Y-104422200D02*
X170958458Y-104469819D01*
X170958458Y-104469819D02*
X170815601Y-104469819D01*
X170815601Y-104469819D02*
X170720363Y-104422200D01*
X170720363Y-104422200D02*
X170672744Y-104374580D01*
X170053696Y-104469819D02*
X170148934Y-104422200D01*
X170148934Y-104422200D02*
X170196553Y-104326961D01*
X170196553Y-104326961D02*
X170196553Y-103469819D01*
X169815600Y-103803152D02*
X169434648Y-103803152D01*
X169672743Y-103469819D02*
X169672743Y-104326961D01*
X169672743Y-104326961D02*
X169625124Y-104422200D01*
X169625124Y-104422200D02*
X169529886Y-104469819D01*
X169529886Y-104469819D02*
X169434648Y-104469819D01*
X166963220Y-96469819D02*
X166963220Y-95469819D01*
X166963220Y-95469819D02*
X166582268Y-95469819D01*
X166582268Y-95469819D02*
X166487030Y-95517438D01*
X166487030Y-95517438D02*
X166439411Y-95565057D01*
X166439411Y-95565057D02*
X166391792Y-95660295D01*
X166391792Y-95660295D02*
X166391792Y-95803152D01*
X166391792Y-95803152D02*
X166439411Y-95898390D01*
X166439411Y-95898390D02*
X166487030Y-95946009D01*
X166487030Y-95946009D02*
X166582268Y-95993628D01*
X166582268Y-95993628D02*
X166963220Y-95993628D01*
X166058458Y-95469819D02*
X165820363Y-96469819D01*
X165820363Y-96469819D02*
X165629887Y-95755533D01*
X165629887Y-95755533D02*
X165439411Y-96469819D01*
X165439411Y-96469819D02*
X165201316Y-95469819D01*
X164820363Y-96469819D02*
X164820363Y-95469819D01*
X164820363Y-95469819D02*
X164487030Y-96184104D01*
X164487030Y-96184104D02*
X164153697Y-95469819D01*
X164153697Y-95469819D02*
X164153697Y-96469819D01*
X169696009Y-96503696D02*
X169743628Y-96646553D01*
X169743628Y-96646553D02*
X169791247Y-96694172D01*
X169791247Y-96694172D02*
X169886485Y-96741791D01*
X169886485Y-96741791D02*
X170029342Y-96741791D01*
X170029342Y-96741791D02*
X170124580Y-96694172D01*
X170124580Y-96694172D02*
X170172200Y-96646553D01*
X170172200Y-96646553D02*
X170219819Y-96551315D01*
X170219819Y-96551315D02*
X170219819Y-96170363D01*
X170219819Y-96170363D02*
X169219819Y-96170363D01*
X169219819Y-96170363D02*
X169219819Y-96503696D01*
X169219819Y-96503696D02*
X169267438Y-96598934D01*
X169267438Y-96598934D02*
X169315057Y-96646553D01*
X169315057Y-96646553D02*
X169410295Y-96694172D01*
X169410295Y-96694172D02*
X169505533Y-96694172D01*
X169505533Y-96694172D02*
X169600771Y-96646553D01*
X169600771Y-96646553D02*
X169648390Y-96598934D01*
X169648390Y-96598934D02*
X169696009Y-96503696D01*
X169696009Y-96503696D02*
X169696009Y-96170363D01*
X169934104Y-97884649D02*
X169934104Y-98360839D01*
X170219819Y-97789411D02*
X169219819Y-98122744D01*
X169219819Y-98122744D02*
X170219819Y-98456077D01*
X164319819Y-106741541D02*
X164319819Y-107360588D01*
X164319819Y-107360588D02*
X164700771Y-107027255D01*
X164700771Y-107027255D02*
X164700771Y-107170112D01*
X164700771Y-107170112D02*
X164748390Y-107265350D01*
X164748390Y-107265350D02*
X164796009Y-107312969D01*
X164796009Y-107312969D02*
X164891247Y-107360588D01*
X164891247Y-107360588D02*
X165129342Y-107360588D01*
X165129342Y-107360588D02*
X165224580Y-107312969D01*
X165224580Y-107312969D02*
X165272200Y-107265350D01*
X165272200Y-107265350D02*
X165319819Y-107170112D01*
X165319819Y-107170112D02*
X165319819Y-106884398D01*
X165319819Y-106884398D02*
X165272200Y-106789160D01*
X165272200Y-106789160D02*
X165224580Y-106741541D01*
X164653152Y-107693922D02*
X165319819Y-107932017D01*
X165319819Y-107932017D02*
X164653152Y-108170112D01*
X164319819Y-108455827D02*
X164319819Y-109074874D01*
X164319819Y-109074874D02*
X164700771Y-108741541D01*
X164700771Y-108741541D02*
X164700771Y-108884398D01*
X164700771Y-108884398D02*
X164748390Y-108979636D01*
X164748390Y-108979636D02*
X164796009Y-109027255D01*
X164796009Y-109027255D02*
X164891247Y-109074874D01*
X164891247Y-109074874D02*
X165129342Y-109074874D01*
X165129342Y-109074874D02*
X165224580Y-109027255D01*
X165224580Y-109027255D02*
X165272200Y-108979636D01*
X165272200Y-108979636D02*
X165319819Y-108884398D01*
X165319819Y-108884398D02*
X165319819Y-108598684D01*
X165319819Y-108598684D02*
X165272200Y-108503446D01*
X165272200Y-108503446D02*
X165224580Y-108455827D01*
X174763220Y-108588866D02*
X174001316Y-108588866D01*
X169974580Y-106508207D02*
X170022200Y-106460588D01*
X170022200Y-106460588D02*
X170069819Y-106317731D01*
X170069819Y-106317731D02*
X170069819Y-106222493D01*
X170069819Y-106222493D02*
X170022200Y-106079636D01*
X170022200Y-106079636D02*
X169926961Y-105984398D01*
X169926961Y-105984398D02*
X169831723Y-105936779D01*
X169831723Y-105936779D02*
X169641247Y-105889160D01*
X169641247Y-105889160D02*
X169498390Y-105889160D01*
X169498390Y-105889160D02*
X169307914Y-105936779D01*
X169307914Y-105936779D02*
X169212676Y-105984398D01*
X169212676Y-105984398D02*
X169117438Y-106079636D01*
X169117438Y-106079636D02*
X169069819Y-106222493D01*
X169069819Y-106222493D02*
X169069819Y-106317731D01*
X169069819Y-106317731D02*
X169117438Y-106460588D01*
X169117438Y-106460588D02*
X169165057Y-106508207D01*
X170022200Y-106889160D02*
X170069819Y-107032017D01*
X170069819Y-107032017D02*
X170069819Y-107270112D01*
X170069819Y-107270112D02*
X170022200Y-107365350D01*
X170022200Y-107365350D02*
X169974580Y-107412969D01*
X169974580Y-107412969D02*
X169879342Y-107460588D01*
X169879342Y-107460588D02*
X169784104Y-107460588D01*
X169784104Y-107460588D02*
X169688866Y-107412969D01*
X169688866Y-107412969D02*
X169641247Y-107365350D01*
X169641247Y-107365350D02*
X169593628Y-107270112D01*
X169593628Y-107270112D02*
X169546009Y-107079636D01*
X169546009Y-107079636D02*
X169498390Y-106984398D01*
X169498390Y-106984398D02*
X169450771Y-106936779D01*
X169450771Y-106936779D02*
X169355533Y-106889160D01*
X169355533Y-106889160D02*
X169260295Y-106889160D01*
X169260295Y-106889160D02*
X169165057Y-106936779D01*
X169165057Y-106936779D02*
X169117438Y-106984398D01*
X169117438Y-106984398D02*
X169069819Y-107079636D01*
X169069819Y-107079636D02*
X169069819Y-107317731D01*
X169069819Y-107317731D02*
X169117438Y-107460588D01*
X169784104Y-107841541D02*
X169784104Y-108317731D01*
X170069819Y-107746303D02*
X169069819Y-108079636D01*
X169069819Y-108079636D02*
X170069819Y-108412969D01*
X170113220Y-99719819D02*
X170113220Y-99053152D01*
X170113220Y-99243628D02*
X170065601Y-99148390D01*
X170065601Y-99148390D02*
X170017982Y-99100771D01*
X170017982Y-99100771D02*
X169922744Y-99053152D01*
X169922744Y-99053152D02*
X169827506Y-99053152D01*
X169065601Y-99053152D02*
X169065601Y-99719819D01*
X169494172Y-99053152D02*
X169494172Y-99576961D01*
X169494172Y-99576961D02*
X169446553Y-99672200D01*
X169446553Y-99672200D02*
X169351315Y-99719819D01*
X169351315Y-99719819D02*
X169208458Y-99719819D01*
X169208458Y-99719819D02*
X169113220Y-99672200D01*
X169113220Y-99672200D02*
X169065601Y-99624580D01*
X168637029Y-99672200D02*
X168541791Y-99719819D01*
X168541791Y-99719819D02*
X168351315Y-99719819D01*
X168351315Y-99719819D02*
X168256077Y-99672200D01*
X168256077Y-99672200D02*
X168208458Y-99576961D01*
X168208458Y-99576961D02*
X168208458Y-99529342D01*
X168208458Y-99529342D02*
X168256077Y-99434104D01*
X168256077Y-99434104D02*
X168351315Y-99386485D01*
X168351315Y-99386485D02*
X168494172Y-99386485D01*
X168494172Y-99386485D02*
X168589410Y-99338866D01*
X168589410Y-99338866D02*
X168637029Y-99243628D01*
X168637029Y-99243628D02*
X168637029Y-99196009D01*
X168637029Y-99196009D02*
X168589410Y-99100771D01*
X168589410Y-99100771D02*
X168494172Y-99053152D01*
X168494172Y-99053152D02*
X168351315Y-99053152D01*
X168351315Y-99053152D02*
X168256077Y-99100771D01*
X167779886Y-99719819D02*
X167779886Y-98719819D01*
X167351315Y-99719819D02*
X167351315Y-99196009D01*
X167351315Y-99196009D02*
X167398934Y-99100771D01*
X167398934Y-99100771D02*
X167494172Y-99053152D01*
X167494172Y-99053152D02*
X167637029Y-99053152D01*
X167637029Y-99053152D02*
X167732267Y-99100771D01*
X167732267Y-99100771D02*
X167779886Y-99148390D01*
X175563220Y-94788866D02*
X174801316Y-94788866D01*
X177614819Y-98400791D02*
X177614819Y-99019838D01*
X177614819Y-99019838D02*
X177995771Y-98686505D01*
X177995771Y-98686505D02*
X177995771Y-98829362D01*
X177995771Y-98829362D02*
X178043390Y-98924600D01*
X178043390Y-98924600D02*
X178091009Y-98972219D01*
X178091009Y-98972219D02*
X178186247Y-99019838D01*
X178186247Y-99019838D02*
X178424342Y-99019838D01*
X178424342Y-99019838D02*
X178519580Y-98972219D01*
X178519580Y-98972219D02*
X178567200Y-98924600D01*
X178567200Y-98924600D02*
X178614819Y-98829362D01*
X178614819Y-98829362D02*
X178614819Y-98543648D01*
X178614819Y-98543648D02*
X178567200Y-98448410D01*
X178567200Y-98448410D02*
X178519580Y-98400791D01*
X178519580Y-99448410D02*
X178567200Y-99496029D01*
X178567200Y-99496029D02*
X178614819Y-99448410D01*
X178614819Y-99448410D02*
X178567200Y-99400791D01*
X178567200Y-99400791D02*
X178519580Y-99448410D01*
X178519580Y-99448410D02*
X178614819Y-99448410D01*
X177614819Y-99829362D02*
X177614819Y-100496028D01*
X177614819Y-100496028D02*
X178614819Y-100067457D01*
X178233866Y-100734124D02*
X178186247Y-100781743D01*
X178186247Y-100781743D02*
X178138628Y-100876981D01*
X178138628Y-100876981D02*
X178233866Y-101067457D01*
X178233866Y-101067457D02*
X178186247Y-101162695D01*
X178186247Y-101162695D02*
X178138628Y-101210314D01*
X177614819Y-101496029D02*
X177614819Y-102162695D01*
X177614819Y-102162695D02*
X178614819Y-101734124D01*
X178519580Y-102543648D02*
X178567200Y-102591267D01*
X178567200Y-102591267D02*
X178614819Y-102543648D01*
X178614819Y-102543648D02*
X178567200Y-102496029D01*
X178567200Y-102496029D02*
X178519580Y-102543648D01*
X178519580Y-102543648D02*
X178614819Y-102543648D01*
X177948152Y-103448409D02*
X178614819Y-103448409D01*
X177567200Y-103210314D02*
X178281485Y-102972219D01*
X178281485Y-102972219D02*
X178281485Y-103591266D01*
X177614819Y-103829362D02*
X178614819Y-104162695D01*
X178614819Y-104162695D02*
X177614819Y-104496028D01*
D10*
G04 #@! TO.C,TP2*
X165500000Y-105900000D02*
G75*
G02*
X164100000Y-105900000I-700000J0D01*
G01*
X164100000Y-105900000D02*
G75*
G02*
X165500000Y-105900000I700000J0D01*
G01*
G04 #@! TO.C,J8*
X175200000Y-97350000D02*
X175200000Y-98350000D01*
X175200000Y-98350000D02*
X176200000Y-98350000D01*
X178100000Y-95150000D02*
X177100000Y-95150000D01*
X178100000Y-96150000D02*
X178100000Y-95150000D01*
G04 #@! TO.C,J5*
X171500000Y-107250000D02*
X171500000Y-108250000D01*
X171500000Y-108250000D02*
X172500000Y-108250000D01*
X174400000Y-105050000D02*
X173400000Y-105050000D01*
X174400000Y-106050000D02*
X174400000Y-105050000D01*
G04 #@! TO.C,C1*
X176134420Y-98640000D02*
X176415580Y-98640000D01*
X176134420Y-99660000D02*
X176415580Y-99660000D01*
G04 #@! TO.C,C4*
X176134420Y-103140000D02*
X176415580Y-103140000D01*
X176134420Y-104160000D02*
X176415580Y-104160000D01*
G04 #@! TO.C,C5*
X176759420Y-104690000D02*
X177040580Y-104690000D01*
X176759420Y-105710000D02*
X177040580Y-105710000D01*
D12*
G04 #@! TO.C,J7*
X175100000Y-106000000D02*
X178200000Y-106000000D01*
X175100000Y-106350000D02*
X175100000Y-106000000D01*
X175100000Y-109100000D02*
X175100000Y-108750000D01*
X178200000Y-106000000D02*
X178200000Y-106350000D01*
X178200000Y-108750000D02*
X178200000Y-109100000D01*
X178200000Y-109100000D02*
X175100000Y-109100000D01*
D10*
G04 #@! TO.C,TP1*
X166450000Y-98350000D02*
G75*
G02*
X165050000Y-98350000I-700000J0D01*
G01*
X165050000Y-98350000D02*
G75*
G02*
X166450000Y-98350000I700000J0D01*
G01*
G04 #@! TO.C,C3*
X176134420Y-100140000D02*
X176415580Y-100140000D01*
X176134420Y-101160000D02*
X176415580Y-101160000D01*
D12*
G04 #@! TO.C,J6*
X171400000Y-94300000D02*
X174500000Y-94300000D01*
X171400000Y-94650000D02*
X171400000Y-94300000D01*
X171400000Y-97400000D02*
X171400000Y-97050000D01*
X174500000Y-94300000D02*
X174500000Y-94650000D01*
X174500000Y-97050000D02*
X174500000Y-97400000D01*
X174500000Y-97400000D02*
X171400000Y-97400000D01*
D10*
G04 #@! TO.C,C9*
X164907836Y-103690000D02*
X164692164Y-103690000D01*
X164907836Y-104410000D02*
X164692164Y-104410000D01*
G04 #@! TO.C,R2*
X166620000Y-105996359D02*
X166620000Y-106303641D01*
X167380000Y-105996359D02*
X167380000Y-106303641D01*
G04 #@! TO.C,U2*
X163940000Y-100600000D02*
X163940000Y-101400000D01*
X163940000Y-102200000D02*
X163940000Y-101400000D01*
X167060000Y-100600000D02*
X167060000Y-101400000D01*
X167060000Y-102200000D02*
X167060000Y-101400000D01*
X163990000Y-100100000D02*
X163660000Y-100340000D01*
X163660000Y-99860000D01*
X163990000Y-100100000D01*
G36*
X163990000Y-100100000D02*
G01*
X163660000Y-100340000D01*
X163660000Y-99860000D01*
X163990000Y-100100000D01*
G37*
G04 #@! TO.C,R1*
X166803641Y-104320000D02*
X166496359Y-104320000D01*
X166803641Y-105080000D02*
X166496359Y-105080000D01*
G04 #@! TO.C,C2*
X176134420Y-101640000D02*
X176415580Y-101640000D01*
X176134420Y-102660000D02*
X176415580Y-102660000D01*
G04 #@! TD*
%LPC*%
D13*
G04 #@! TO.C,J11*
X168300000Y-108050000D03*
D14*
X168300000Y-106780000D03*
X168300000Y-105510000D03*
G04 #@! TD*
D15*
G04 #@! TO.C,J9*
X173000000Y-102700000D03*
D16*
X173000000Y-100700000D03*
G04 #@! TD*
D13*
G04 #@! TO.C,J10*
X168300000Y-97900000D03*
D14*
X168300000Y-96630000D03*
X168300000Y-95360000D03*
G04 #@! TD*
D17*
G04 #@! TO.C,TP2*
X164800000Y-105900000D03*
G04 #@! TD*
D18*
G04 #@! TO.C,J8*
X176650000Y-96750000D03*
G04 #@! TD*
D19*
G04 #@! TO.C,J5*
X172950000Y-106650000D03*
G04 #@! TD*
D20*
G04 #@! TO.C,C1*
X177050000Y-99150000D03*
X175500000Y-99150000D03*
G04 #@! TD*
G04 #@! TO.C,C4*
X177050000Y-103650000D03*
X175500000Y-103650000D03*
G04 #@! TD*
G04 #@! TO.C,C5*
X177675000Y-105200000D03*
X176125000Y-105200000D03*
G04 #@! TD*
D21*
G04 #@! TO.C,J7*
X176650000Y-107550000D03*
G04 #@! TD*
D17*
G04 #@! TO.C,TP1*
X165750000Y-98350000D03*
G04 #@! TD*
D20*
G04 #@! TO.C,C3*
X177050000Y-100650000D03*
X175500000Y-100650000D03*
G04 #@! TD*
D22*
G04 #@! TO.C,J6*
X172950000Y-95850000D03*
G04 #@! TD*
D23*
G04 #@! TO.C,C9*
X164320000Y-104050000D03*
X165280000Y-104050000D03*
G04 #@! TD*
D24*
G04 #@! TO.C,R2*
X167000000Y-106660000D03*
X167000000Y-105640000D03*
G04 #@! TD*
D25*
G04 #@! TO.C,U2*
X164550000Y-100262500D03*
X165500000Y-100262500D03*
X166450000Y-100262500D03*
X166450000Y-102537500D03*
X164550000Y-102537500D03*
G04 #@! TD*
D26*
G04 #@! TO.C,R1*
X166140000Y-104700000D03*
X167160000Y-104700000D03*
G04 #@! TD*
D20*
G04 #@! TO.C,C2*
X177050000Y-102150000D03*
X175500000Y-102150000D03*
G04 #@! TD*
%LPD*%
M02*
